<?xml version="1.0" standalone="no"?>
<!DOCTYPE svg PUBLIC "-//W3C//DTD SVG 1.1//EN" "http://www.w3.org/Graphics/SVG/1.1/DTD/svg11.dtd">
<svg xmlns="http://www.w3.org/2000/svg">
<defs >
<font id="Cinzel" horiz-adv-x="660" ><font-face
    font-family="Cinzel SemiBold"
    units-per-em="1000"
    panose-1="0 0 0 0 0 0 0 0 0 0"
    ascent="976"
    descent="-372"
    alphabetic="0" />
<glyph unicode=" " horiz-adv-x="250" />
<glyph unicode="!" horiz-adv-x="256" d="M127 -8Q101 -8 83 10T64 55Q64 82 82 100T127 118Q154 118 172 100T190 55Q190 29 172 11T127 -8ZM145 194H110L80 387L64 702H192L175 387L145 194Z" />
<glyph unicode="&quot;" horiz-adv-x="347" d="M63 700L158 714Q159 695 155 664T139 601T107 541T54 500L42 505Q55 549 60 579T66 636T63 700ZM211 700L306 714Q306 695 302 664T287 601T255 541T202 500L190 505Q203 549 208 579T214 636T211 700Z" />
<glyph unicode="#" horiz-adv-x="562" d="M212 700H256L133 0H89L212 700ZM412 700H456L333 0H289L412 700ZM528 497V455H64V497H528ZM484 259V217H20V259H484Z" />
<glyph unicode="$" horiz-adv-x="528" d="M256 714Q279 714 306 712T360 707T407 700T436 692L428 565H419Q419 616 383 646T285 676Q248 676 220 662T176 625T159 574Q158 546 174 523T219 481L412 338Q451 311 470 274T488 187Q485 94 422 41T252 -14Q189 -14
135 1T53 45Q46 65 47 93T55 152T72 204H81Q78 152 98 111T158 47T255 24Q296 25 327 41T375 83T392 143Q392 172 377 197T326 243L145 380Q99 410 80 452T63 542Q66 592 91 631T159 692T256 714ZM437 704L436 683H332V704H437ZM283 788L321 787L253 -102L215 -99L283
788Z" />
<glyph unicode="%" horiz-adv-x="722" d="M222 714Q290 714 323 667T344 537Q332 455 282 408T159 361Q91 361 58 409T38 541Q52 622 101 668T222 714ZM218 686Q186 686 162 647T126 537Q115 468 126 429T168 389Q201 390 225 429T261 537Q272 606 261 646T218
686ZM185 -14L152 0L504 667Q478 652 450 642T389 635Q357 639 331 652T279 678T225 688L219 714Q252 714 275 707T315 690T349 671T390 660Q419 658 444 667T491 689T529 709L558 697L185 -14ZM555 339Q622 339 655 292T677 162Q666 80 616 33T492 -14Q424 -14
391 34T372 166Q385 247 434 293T555 339ZM548 311Q516 311 492 272T456 162Q445 93 456 54T498 14Q531 14 556 53T592 162Q602 231 591 271T548 311Z" />
<glyph unicode="&amp;" horiz-adv-x="753" d="M353 714Q391 714 427 706T493 683T541 643L511 510H502Q502 556 488 593T444 653T370 676Q318 676 284 641T250 551Q250 491 293 438T416 314Q438 296 464 272T520 223T575 176Q622 136 662 101T739 42T810 10L811
0Q778 -2 733 -3T637 8T538 56Q508 79 478 104T419 153T366 197T324 234Q266 285 221 332T150 429T124 538Q124 581 142 614T192 669T265 702T353 714ZM669 340Q674 286 666 235T637 140T579 62T488 9T362 -10Q312 -10 264 -2T173 23T98 67T47 131T28 219Q28 256
39 284T70 335T113 371T161 396T207 411L224 390Q212 380 200 366T178 332T162 288T158 232Q159 183 177 145T227 81T299 42T387 28Q440 28 479 50T545 107T583 184T594 268T575 345Q564 368 549 379T512 391H497V401H719V391H705Q682 391 675 377T669 340Z" />
<glyph unicode="&apos;" horiz-adv-x="190" d="M54 700L149 714Q150 695 146 664T130 601T98 541T45 500L33 505Q46 549 51 579T57 636T54 700Z" />
<glyph unicode="(" horiz-adv-x="395" d="M366 724Q320 703 285 648T231 514T213 336Q215 231 235 146T288 0T364 -91L358 -100Q295 -78 246 -36T162 65T109 192T90 334Q89 408 107 474T161 594T246 683T360 732L366 724Z" />
<glyph unicode=")" horiz-adv-x="395" d="M30 724L36 732Q99 719 149 683T234 594T287 475T306 334Q305 261 287 193T233 66T149 -35T38 -100L32 -91Q74 -61 107 -1T161 145T183 336Q184 434 165 513T111 648T30 724Z" />
<glyph unicode="*" horiz-adv-x="388" d="M292 474L250 461L206 544L194 601L201 605L251 577L317 509L292 474ZM97 474L72 509L137 577L188 605L194 601L183 544L139 461L97 474ZM37 658L63 693L148 652L190 613L188 605L130 599L37 615V658ZM194 773L236 759L223
666L199 613H190L167 666L153 759L194 773ZM352 659L351 615L259 599L201 605L199 613L241 652L325 694L352 659ZM198 614L201 611L202 606L201 604L195 600Q194 601 193 601T192 601L187 605V607L189 613L192 614H198Z" />
<glyph unicode="+" horiz-adv-x="481" d="M40 336H442V283H40V336ZM214 109V511H267V109H214Z" />
<glyph unicode="," horiz-adv-x="215" d="M60 99Q74 114 94 116T133 110T163 76Q178 42 174 9T152 -52T107 -93T46 -105L43 -95Q69 -86 80 -69T89 -30T70 9Q59 22 53 37T48 69T60 99Z" />
<glyph unicode="-" horiz-adv-x="380" d="M40 321H340L348 292L340 262H40L32 292L40 321Z" />
<glyph unicode="." horiz-adv-x="208" d="M104 -8Q78 -8 60 10T41 55Q41 82 59 100T104 118Q131 118 149 100T167 55Q167 29 149 11T104 -8Z" />
<glyph unicode="/" horiz-adv-x="419" d="M369 718L412 697L51 -14L8 9L369 718Z" />
<glyph unicode="0" horiz-adv-x="634" d="M317 714Q400 714 459 670T550 544T582 350Q582 239 551 157T460 31T317 -14Q234 -14 175 30T84 157T52 350Q52 462 84 543T175 669T317 714ZM317 676Q251 676 215 592T178 350Q178 193 214 109T317 24Q384 24 420 108T456
350Q456 507 420 591T317 676Z" />
<glyph unicode="1" horiz-adv-x="376" d="M329 0V10H308Q286 10 270 25T253 63V714H243Q223 697 198 686T146 668T94 657T48 650V640H78Q104 640 118 627T132 583V64Q132 42 116 26T77 10H56L55 0H329Z" />
<glyph unicode="2" horiz-adv-x="596" d="M94 504L56 644Q80 666 115 681T190 705T269 714Q341 714 396 690T483 621T515 513Q515 463 494 415T437 323T361 238T281 165T212 105H426Q456 105 477 114T516 144T551 198H561L505 0H50V10Q89 51 133 100T222 202T302
311T361 419T383 519Q383 594 346 636T246 676Q179 673 141 630T104 504H94Z" />
<glyph unicode="3" horiz-adv-x="543" d="M242 712Q311 714 360 694T435 638T462 554Q462 515 446 484T404 431T348 401T289 399Q321 399 355 389T419 355T467 296T485 210Q485 153 461 107T393 26T295 -27T177 -48T51 -32L53 -22Q114 -23 168 -7T264 42T330 118T354
218Q354 276 327 312T255 366T157 384L159 394Q204 394 245 415T312 474T334 565Q332 598 317 623T275 661T211 674Q150 672 120 631T92 516H82L48 641Q78 670 126 690T242 712Z" />
<glyph unicode="4" horiz-adv-x="607" d="M333 567L444 714H454V1H333V567ZM444 714L454 662L131 300H497Q525 300 536 307T557 328H567L541 225H18V235L444 714ZM454 64Q454 42 470 26T509 10H520V0H266L267 10H277Q300 10 316 25T333 64H454Z" />
<glyph unicode="5" horiz-adv-x="536" d="M425 587L161 568L126 440Q202 459 266 453T378 418T449 342T471 230Q468 156 434 104T349 18T238 -30T125 -46T34 -31L36 -21Q61 -22 98 -14T175 13T250 59T310 127T337 218Q342 281 306 319T207 364T63 342L54 347L134
664L373 683Q405 683 423 697T452 733H462L425 587Z" />
<glyph unicode="6" horiz-adv-x="607" d="M465 734L469 727Q383 700 329 657T244 557T203 431T191 281Q191 203 203 146T242 58T314 27Q357 27 382 53T419 120T430 208Q429 261 418 296T384 349T329 371Q302 374 277 364T234 335L227 344Q248 375 280 394T349
420T422 419T488 387T537 322T558 221Q559 160 532 107T450 20T315 -15Q235 -16 177 18T86 120T55 289Q55 379 80 459T156 601T284 699T465 734Z" />
<glyph unicode="7" horiz-adv-x="530" d="M23 536H33Q44 566 61 581T108 596H405L332 414Q319 383 301 342T261 254T217 160T176 72T142 0H252Q260 31 273 73T301 164T333 259T364 345T387 407L503 700L51 698L23 536Z" />
<glyph unicode="8" horiz-adv-x="586" d="M85 530Q85 585 111 626T183 690T291 714Q349 715 396 695T471 636T499 545Q499 499 477 465T417 409T331 380L302 389Q334 407 353 435T379 495T387 556Q387 609 362 642T291 675Q245 676 221 644T196 568Q196 537 208
512T248 463T317 416Q353 397 392 378T465 333T519 273T540 185Q540 123 509 79T420 10T285 -14Q237 -14 193 -3T116 31T64 89T46 172Q46 207 58 234T91 282T136 318T186 344T235 362L269 356Q223 333 191 291T159 178Q158 108 193 67T289 24Q331 23 360 39T405
84T421 144Q421 174 410 196T379 235T331 268T270 300Q237 318 205 339T145 387T101 450T85 530Z" />
<glyph unicode="9" horiz-adv-x="607" d="M142 -37L138 -30Q224 -5 278 37T362 137T404 264T416 412Q416 493 404 551T366 639T294 669Q251 669 225 644T188 578T177 488Q178 436 189 401T223 347T278 326Q306 323 331 333T374 361L379 353Q359 321 327 302T258
276T184 279T117 312T68 376T50 475Q49 545 77 597T161 680T292 712Q414 714 483 637T552 407Q552 319 527 239T451 95T323 -3T142 -37Z" />
<glyph unicode=":" horiz-adv-x="208" d="M104 375Q78 375 60 393T41 438Q41 465 59 483T104 501Q131 501 149 483T167 438Q167 412 149 394T104 375ZM104 -8Q78 -8 60 10T41 55Q41 82 59 100T104 118Q131 118 149 100T167 55Q167 29 149 11T104 -8Z" />
<glyph unicode=";" horiz-adv-x="215" d="M60 99Q74 114 94 116T133 110T163 76Q178 42 174 9T152 -52T107 -93T46 -105L43 -95Q69 -86 80 -69T89 -30T70 9Q59 22 53 37T48 69T60 99ZM104 403Q78 403 60 421T41 466Q41 493 59 511T104 529Q131 529 149 511T167
466Q167 440 149 422T104 403Z" />
<glyph unicode="&lt;" horiz-adv-x="489" d="M442 467L65 287L66 333L442 152V95L40 284V335L442 524V467Z" />
<glyph unicode="=" horiz-adv-x="481" d="M40 413H442V360H40V413ZM40 238H442V185H40V238Z" />
<glyph unicode="&gt;" horiz-adv-x="481" d="M40 467V524L442 335V284L40 95V152L416 333L417 287L40 467Z" />
<glyph unicode="?" horiz-adv-x="445" d="M12 625Q35 666 81 690T189 714Q291 714 347 669T403 541Q403 507 392 480T362 430T321 386T278 343T239 295Q228 280 220 265T211 232T224 194L217 188Q184 207 166 234T150 296Q151 322 164 343T195 385T230 428T260
479T272 545Q271 607 243 641T164 676Q109 676 79 637T48 522H38L12 625ZM199 -8Q172 -8 154 10T135 55Q135 82 153 100T199 118Q225 118 243 100T261 55Q261 29 243 11T199 -8Z" />
<glyph unicode="@" horiz-adv-x="986" d="M623 688Q731 674 804 621T912 487T939 311Q932 223 896 143T796 0T644 -95T444 -124T200 -63L196 -53Q300 -94 392 -97T562 -72T699 13T793 145T837 314Q847 405 823 476T748 593T620 652Q555 662 490 651T366 608T258
521T175 390Q151 338 140 289T131 199T149 134T197 109Q224 109 250 127T301 174T348 234T390 291L517 464Q517 464 529 479T554 512T572 541H578L565 477L427 281Q380 214 343 168T272 98T197 73Q151 72 116 96T62 165T43 269T73 395Q105 471 159 530T286 629T444
684T623 688ZM551 244L541 216H352L363 244H551ZM637 137Q640 112 651 101T677 90Q676 90 679 90T682 90L680 83H490L491 90H498Q510 90 525 102T539 137H637ZM578 541L644 87H544L513 434L578 541Z" />
<glyph unicode="A" horiz-adv-x="715" d="M356 718L672 6H524L309 558L356 718ZM141 73Q133 53 138 39T155 18T179 10H188V0H-22V10Q-22 10 -18 10T-13 10Q10 10 34 24T75 73H141ZM356 718L361 613L112 3H44L302 596Q304 600 310 615T325 651T340 689T347 718H356ZM473
250V212H172V250H473ZM498 73H642Q658 39 682 25T730 10Q730 10 734 10T738 10V0H451V10H460Q479 10 494 26T498 73Z" />
<glyph unicode="B" horiz-adv-x="645" d="M157 700H307Q379 700 433 682T518 626T549 530Q549 486 532 454T488 404T430 381Q482 375 521 350T583 285T606 193Q606 132 574 89T481 23T340 0H238Q238 0 238 10T239 31T239 42H310Q357 42 392 59T446 113T466 203Q466
251 450 283T408 335T348 362T281 370V379Q304 379 328 385T372 407T404 450T417 520Q417 568 401 599T355 646T283 661H167Q167 662 165 671T160 690T157 700ZM247 700V0H125V700H247ZM128 73V0H48V10Q50 10 55 10T61 10Q87 10 105 28T125 73H128ZM128 627H125Q124
653 106 671T61 690Q60 690 55 690T48 690V700H128V627Z" />
<glyph unicode="C" horiz-adv-x="773" d="M718 292L720 125Q697 86 659 55T567 5T439 -14Q323 -13 235 31T99 156T50 351Q50 462 98 543T234 669T443 714Q521 714 583 697T688 655L696 494H687Q662 589 599 632T450 676Q368 676 309 637T217 525T184 353Q184 254
215 181T304 67T439 24Q514 24 569 49T660 134T710 292H718Z" />
<glyph unicode="D" horiz-adv-x="821" d="M403 700Q517 700 601 658T732 536T778 350Q778 243 732 165T602 43T403 0H173L172 38Q191 38 219 38T278 38T335 38T378 38T395 38Q472 38 527 76T614 185T645 350Q645 445 614 515T527 623T395 662Q395 662 378 662T333
662T273 662T212 662T162 662V700H403ZM247 700V0H125V700H247ZM128 73V0H48V10Q48 10 54 10T61 10Q87 10 105 28T125 73H128ZM128 627H125Q125 653 106 671T61 690Q61 690 55 690T49 690L48 700H128V627Z" />
<glyph unicode="E" horiz-adv-x="613" d="M247 700V0H125V700H247ZM512 39L529 0H244V39H512ZM474 364V326H244V364H474ZM521 700V661H244V700H521ZM582 190L532 0H345L381 39Q432 39 469 57T531 110T572 190H582ZM474 328V242H464V253Q464 284 443 305T391 326V328H474ZM474
448V362H391V364Q422 365 443 386T464 438V448H474ZM521 664V560H511V574Q511 612 487 636T423 662V664H521ZM521 718V689L399 700Q421 700 445 703T491 710T521 718ZM128 73V0H48V10Q48 10 54 10T61 10Q87 10 105 28T125 73H128ZM128 627H125Q124 653 106 671T61
690Q61 690 55 690T48 690V700H128V627Z" />
<glyph unicode="F" horiz-adv-x="577" d="M247 700V0H125V700H247ZM474 364V326H244V364H474ZM521 700V661H244V700H521ZM474 328V242H464V253Q464 284 443 305T391 326V328H474ZM474 448V362H391V364Q422 365 443 386T464 438V448H474ZM521 664V567H511V580Q511
616 489 638T429 661V664H521ZM521 718V689L399 700Q421 700 445 703T491 710T521 718ZM128 73V0H48V10Q48 10 54 10T61 10Q87 10 105 28T125 73H128ZM128 627H125Q124 653 106 671T61 690Q61 690 55 690T48 690V700H128V627ZM244 73H247Q248 47 266 29T311 10Q311
10 317 10T324 10V0H244V73Z" />
<glyph unicode="G" horiz-adv-x="824" d="M739 280V115Q716 85 672 55T564 6T421 -14Q311 -13 227 31T97 157T50 351Q50 461 96 543T227 669T425 714Q480 714 529 706T620 685T691 655L699 494H690Q672 559 637 598T552 657T446 676Q363 676 305 636T215 522T184
347Q184 249 213 177T298 65T430 24Q470 24 506 35T571 67T618 119L619 280Q619 325 568 325H552V335H804V325H789Q737 325 739 280Z" />
<glyph unicode="H" horiz-adv-x="845" d="M721 700V0H599V700H721ZM247 700V0H125V700H247ZM608 367V329H237V367H608ZM128 73V0H48V10Q48 10 54 10T61 10Q87 10 105 28T125 73H128ZM128 627H125Q124 653 106 671T61 690Q61 690 55 690T48 690V700H128V627ZM244
73H247Q248 47 266 29T311 10Q311 10 317 10T324 10V0H244V73ZM244 627V700H324V690Q323 690 317 690T311 690Q285 690 267 672T247 627H244ZM602 73V0H522V10Q523 10 529 10T535 10Q561 10 580 28T599 73H602ZM602 627H599Q599 653 580 671T535 690Q535 690 529
690T522 690V700H602V627ZM718 73H721Q722 47 740 29T785 10Q785 10 791 10T798 10V0H718V73ZM718 627V700H798V690Q798 690 792 690T785 690Q759 690 741 672T721 627H718Z" />
<glyph unicode="I" horiz-adv-x="370" d="M247 700V0H125V700H247ZM128 73V0H48V10Q48 10 54 10T61 10Q87 10 105 28T125 73H128ZM128 627H125Q124 653 106 671T61 690Q61 690 55 690T48 690V700H128V627ZM244 73H247Q248 47 266 29T311 10Q311 10 317 10T324
10V0H244V73ZM244 627V700H324V690Q323 690 317 690T311 690Q285 690 267 672T247 627H244Z" />
<glyph unicode="J" horiz-adv-x="364" d="M249 700V20Q249 -31 230 -72T177 -143T100 -188T10 -200V-191Q49 -175 75 -142T114 -65T127 23V700H249ZM130 627H127Q126 653 108 671T63 690Q63 690 57 690T50 690V700H130V627ZM246 627V700H326V690Q326 690 320 690T313
690Q287 690 269 672T249 627H246Z" />
<glyph unicode="K" horiz-adv-x="724" d="M372 415L641 65Q663 38 686 25T741 10V0H672Q661 0 638 1T587 9T529 31T478 74Q475 79 460 99T421 149T374 211T328 272T293 318T279 336L372 415ZM635 693L335 340L279 336L554 693H635ZM705 700V691H701Q668 691 640
678T591 642L516 644Q528 661 520 676T492 691H482V700H701H705ZM247 700V0H125V700H247ZM128 73V0H48V10Q49 10 54 10T61 10Q87 10 105 28T125 73H128ZM128 627H125Q124 653 106 671T61 690Q60 690 55 690T48 690V700H128V627ZM244 73H247Q248 47 266 29T311 10Q311
10 317 10T324 10V0H244V73ZM244 627V700H324V690Q323 690 317 690T311 690Q285 690 267 672T247 627H244Z" />
<glyph unicode="L" horiz-adv-x="598" d="M247 700V0H125V700H247ZM512 39L529 0H244V39H512ZM582 190L532 0H345L381 39Q432 39 469 57T531 110T572 190H582ZM128 73V0H48V10Q48 10 54 10T61 10Q87 10 105 28T125 73H128ZM128 627H125Q124 653 106 671T61 690Q61
690 55 690T48 690V700H128V627ZM244 627V700H324V690Q323 690 317 690T311 690Q285 690 267 672T247 627H244Z" />
<glyph unicode="M" horiz-adv-x="946" d="M767 714L775 619L493 90Q493 90 484 73T466 30T456 -18H446L415 61L767 714ZM110 73V0H-1V10Q0 10 7 10T15 10Q42 10 63 26T88 73H110ZM149 57Q149 56 149 55T149 52Q149 36 160 23T188 9H203V0H142V57H149ZM168 714H178L208
627L143 0H79L168 714ZM178 714L492 148L446 -18L154 519L178 714ZM776 714L868 0H735L683 508L767 714H776ZM837 73H859Q864 43 884 27T932 10Q932 10 939 10T948 10V0H837V73ZM729 57H736V0H675V9H690Q707 9 718 22T729 52Q729 54 729 55T729 57Z" />
<glyph unicode="N" horiz-adv-x="857" d="M114 715L733 103L744 -14L125 597L114 715ZM118 71V0H35V10Q35 10 44 10T54 10Q79 10 97 28T115 71H118ZM226 71Q226 46 244 28T287 10Q288 10 297 10T306 10V0H223V71H226ZM114 715L225 594L226 0H115V590Q115 644 110
679T104 715H114ZM742 700V114Q742 78 745 49T750 3T753 -14H744L633 111V700H742ZM822 700V690Q822 690 813 690T804 690Q779 690 761 673T742 629H739V700H822ZM552 700H635V629H633Q632 655 615 672T571 690Q571 690 562 690T552 690V700Z" />
<glyph unicode="O" horiz-adv-x="865" d="M438 714Q553 714 639 670T773 543T820 350Q820 239 773 157T640 31T438 -14Q322 -14 236 30T103 157T56 350Q56 461 103 543T236 669T438 714ZM438 24Q513 24 568 64T654 177T685 350Q685 450 655 523T569 636T438 676Q363
676 308 636T222 523T191 350Q191 250 221 177T307 64T438 24Z" />
<glyph unicode="P" horiz-adv-x="630" d="M236 700H359Q438 700 489 676T567 608T594 508Q595 458 577 418T526 351T453 312T368 304T283 335V345Q283 345 296 344T332 346T378 360T424 394T456 457Q460 470 461 486T462 517Q461 583 427 622T331 662H246Q246
662 244 671T239 690T236 700ZM249 700V0H127V700H249ZM130 73V0H50V10Q51 10 56 10T63 10Q89 10 107 28T127 73H130ZM130 627H127Q127 653 108 671T63 690Q62 690 57 690T51 690L50 700H130V627ZM246 73H249Q250 47 268 29T313 10Q313 10 319 10T326 10V0H246V73Z"
/>
<glyph unicode="Q" horiz-adv-x="867" d="M426 -14L410 21Q455 18 496 12T578 -5T663 -31T758 -65T870 -110Q934 -135 999 -147T1127 -156T1244 -133T1342 -76L1347 -80Q1343 -118 1316 -154T1243 -219T1133 -259T992 -260T826 -206Q774 -180 724 -150T623 -91T524
-41T426 -14ZM434 714Q549 714 634 670T767 543T815 350Q815 239 768 157T634 31T434 -14Q318 -14 233 30T100 157T52 350Q52 461 99 543T232 669T434 714ZM434 24Q509 24 564 64T650 177T681 350Q681 450 651 523T565 636T434 676Q358 676 303 636T217 523T186
350Q186 250 216 177T303 64T434 24Z" />
<glyph unicode="R" horiz-adv-x="724" d="M236 700H369Q414 700 454 689T526 655T574 597T592 512Q592 468 573 425T517 354T426 321Q453 312 477 288T518 239Q519 238 530 221T559 178T594 128T627 86Q649 60 667 44T707 19T755 10V0H672Q620 0 580 11T509 44T457
99Q451 108 440 126T416 168T391 212T370 251T358 275Q342 304 323 322T282 342V352Q284 352 295 352T320 352Q347 353 374 362T424 395T456 464Q458 473 460 487T461 516Q458 586 425 622T341 660Q322 661 301 661T265 660T246 660Q246 661 244 671T239 690T236
700ZM249 700V0H127V700H249ZM130 73V0H50V10Q51 10 56 10T63 10Q89 10 107 28T127 73H130ZM130 627H127Q126 653 108 671T63 690Q62 690 57 690T50 690V700H130V627ZM246 73H249Q249 47 268 29T313 10Q314 10 319 10T325 10V0H246V73Z" />
<glyph unicode="S" horiz-adv-x="544" d="M268 714Q287 714 313 712T365 707T413 700T442 692L434 565H424Q424 616 388 646T293 676Q235 676 201 646T165 573Q163 548 179 525T224 481L417 338Q458 311 477 273T494 186Q491 94 428 40T255 -14Q218 -14 180 -8T109
12T58 45Q52 65 53 93T61 152T78 204H87Q83 153 104 112T165 47T261 24Q323 26 360 59T398 144Q398 174 382 198T332 243L151 380Q105 410 86 452T69 541Q72 589 96 628T163 691T268 714ZM443 704L442 683H338V704H443Z" />
<glyph unicode="T" horiz-adv-x="650" d="M387 697V0H265V697H387ZM635 701V663H16V701H635ZM635 666V561L625 562V575Q625 614 601 638T538 663V666H635ZM635 719V690L513 701Q535 701 559 704T605 711T635 719ZM268 73V0H188V10Q188 10 194 10T201 10Q227 10
245 28T265 73H268ZM384 73H387Q388 47 406 29T451 10Q451 10 457 10T464 10V0H384V73ZM113 666V663Q74 662 50 638T26 575V562L16 561V666H113ZM16 719Q26 715 46 711T92 704T138 701L16 690V719Z" />
<glyph unicode="U" horiz-adv-x="809" d="M233 700V260Q233 189 257 136T327 54T432 25Q496 25 542 52T613 129T639 247V700H702V251Q702 171 668 112T571 19T420 -14Q322 -14 253 18T147 110T111 250V700H233ZM114 700V640H111Q111 662 96 676T58 690Q58 690
50 690T42 690V700H114ZM302 700V690Q302 690 294 690T286 690Q264 690 249 676T233 640H231V700H302ZM642 700V640H639Q639 662 624 676T586 690Q586 690 578 690T570 690V700H642ZM771 700V690Q771 690 763 690T755 690Q733 690 718 676T702 640H700V700H771Z"
/>
<glyph unicode="V" horiz-adv-x="732" d="M368 -18L44 694H191L415 142L368 -18ZM368 -18L362 87L620 697H689L422 104Q420 100 413 85T398 49T384 11T377 -18H368ZM591 628Q603 658 588 674T553 690H544V700H754V690Q754 690 750 690T745 690Q723 690 698 676T657
627L591 628ZM219 628L74 627Q58 661 34 675T-14 690Q-14 690 -18 690T-22 690V700H265V690H256Q237 690 223 674T219 628Z" />
<glyph unicode="W" horiz-adv-x="975" d="M46 694H181L350 194L304 -16L46 694ZM528 716L543 623L337 95Q337 95 331 78T320 36T313 -16H304L280 93L519 716H528ZM528 715L745 195L706 -16L471 546L528 715ZM922 694L734 95Q734 95 729 77T720 34T715 -16H706L683
83L857 694H922ZM838 628Q846 658 833 674T800 690H791V700H997V690Q997 690 993 690T989 690Q966 690 939 676T901 628H838ZM205 628H70Q57 661 31 675T-18 690Q-18 690 -22 690T-26 690V700H251V690H242Q223 690 209 674T205 628Z" />
<glyph unicode="X" horiz-adv-x="707" d="M207 700L657 1H512L64 700H207ZM173 72Q164 58 168 44T183 20T208 10Q208 10 214 10T221 10V0H-19V10H-5Q27 10 53 28T96 69L173 72ZM302 365L342 326L126 1H48L302 365ZM467 72L613 68Q629 45 656 28T714 10H728V0H420V10Q420
10 426 10T432 10Q453 10 466 30T467 72ZM300 700V690Q300 690 294 690T288 690Q275 690 264 681T249 657T253 628L108 631Q92 654 66 672T7 690H-7V700H300ZM633 700L393 345L355 386L555 700H633ZM701 700V690H687Q656 690 630 672T586 631L509 628Q518 642 514
656T499 680T474 690Q474 690 468 690T462 690V700H701Z" />
<glyph unicode="Y" horiz-adv-x="689" d="M192 699L394 329L285 308L49 699H192ZM402 322V0H280V322H402ZM569 699H641L393 302L347 312L569 699ZM528 628Q536 642 532 656T518 680T493 690Q493 690 487 690T481 690V700H714V690H700Q669 690 642 672T599 631L528
628ZM231 628L90 631Q76 654 49 672T-10 690H-24V700H279V690Q279 690 273 690T266 690Q244 690 233 670T231 628ZM283 73V0H203V10Q203 10 209 10T216 10Q242 10 260 28T280 73H283ZM399 73H402Q402 47 421 29T466 10Q466 10 472 10T478 10V0H399V73Z" />
<glyph unicode="Z" horiz-adv-x="658" d="M597 714Q597 714 597 710T597 705L185 0H50V9L434 663H64V701H491Q511 701 533 703T573 708T597 714ZM591 38L585 0H118V38H591ZM628 186L593 0H427L438 30L452 38Q515 38 557 79T618 186H628ZM161 663Q122 662 98 638T74
575V561H64V666H161V663ZM64 719Q74 715 94 711T140 704T186 701L64 690V719Z" />
<glyph unicode="[" horiz-adv-x="389" d="M120 722H346V712L242 680V-48L349 -80V-90H120V722Z" />
<glyph unicode="\" horiz-adv-x="419" d="M51 718L412 9L369 -14L8 697L51 718Z" />
<glyph unicode="]" horiz-adv-x="389" d="M269 722V-90H40V-80L147 -48V680L43 712V722H269Z" />
<glyph unicode="^" horiz-adv-x="543" d="M35 178H109L272 332L435 178H508L304 375H241L35 178Z" />
<glyph unicode="_" horiz-adv-x="500" d="M0 -60H500V-98H0V-60Z" />
<glyph unicode="`" horiz-adv-x="504" d="M262 752L255 745Q224 755 191 768T126 799T65 833Q74 857 88 874T124 905Q145 885 170 860T219 807T262 752Z" />
<glyph unicode="a" horiz-adv-x="650" d="M325 623L614 6H475L280 471L325 623ZM135 68Q124 40 138 25T169 10H177V0H-20V10Q-20 10 -16 10T-12 10Q9 10 31 23T67 68H135ZM325 623L328 520L107 3H37L272 508Q273 512 279 526T294 559T308 595T316 623H325ZM422
208V172H163V208H422ZM449 68H585Q599 37 621 24T663 10Q663 10 667 10T671 10V0H407V10H415Q432 10 446 25T449 68Z" />
<glyph unicode="b" horiz-adv-x="593" d="M140 600H289Q324 600 363 595T435 574T488 528T509 450Q509 416 493 389T452 347T399 326Q444 323 480 302T538 248T560 170Q560 122 540 90T485 38T408 9T318 0H217Q217 0 217 9T218 27T218 36H290Q328 36 359 50T409
95T428 176Q428 216 414 243T376 286T321 310T255 317V326Q280 326 303 331T345 350T375 387T386 444Q386 510 354 537T267 564H148Q148 565 146 574T142 591T140 600ZM226 600V0H110V600H226ZM113 63V0H42V10Q43 10 48 10T54 10Q78 10 94 25T110 63H113ZM113 537H110Q110
560 94 575T54 590Q53 590 48 590T42 590V600H113V537Z" />
<glyph unicode="c" horiz-adv-x="690" d="M645 251L649 105Q627 70 591 44T504 2T390 -13Q282 -12 203 25T82 132T39 300Q39 398 81 468T202 575T390 613Q456 613 516 599T617 562L625 410H617Q593 502 535 539T396 577Q321 577 270 543T192 447T165 302Q165 218
192 156T269 59T390 23Q462 23 513 46T595 119T636 251H645Z" />
<glyph unicode="d" horiz-adv-x="752" d="M377 600Q482 600 557 564T672 461T713 300Q713 206 673 139T557 36T377 0H158L156 36Q230 36 277 36T346 36T369 36Q470 36 528 106T587 300Q587 423 529 493T369 564Q369 564 346 564T273 564T146 564V600H377ZM228
600V0H110V600H228ZM112 65V0H40V10Q40 10 46 10T53 10Q77 10 93 26T110 65H112ZM112 536H110Q109 560 93 575T52 590Q52 590 46 590T40 590V600H112V536Z" />
<glyph unicode="e" horiz-adv-x="558" d="M227 600V0H110V600H227ZM473 37L488 0H225V37H473ZM434 317V280H225V317H434ZM480 600V563H225V600H480ZM534 170L490 0H324L356 37Q402 37 434 53T489 100T525 170H534ZM434 282V204H424V213Q424 241 407 260T359 280V282H434ZM434
392V315H359V317Q390 317 407 336T424 383V392H434ZM480 566V472H469V483Q469 519 449 541T392 563V566H480ZM480 616V590L372 600Q401 600 434 605T480 616ZM112 63L119 0H41V10Q41 10 47 10T54 10Q77 10 93 25T110 63H112ZM112 537H110Q109 560 93 575T54 590Q54
590 48 590T41 590V600H119L112 537Z" />
<glyph unicode="f" horiz-adv-x="531" d="M227 600V0H110V600H227ZM436 317V280H225V317H436ZM482 600V563H225V600H482ZM436 282V204H426V213Q426 241 409 260T361 280V282H436ZM436 392V315H361V317Q392 317 409 336T426 383V392H436ZM482 566V471H471V482Q471
518 451 540T393 563V566H482ZM482 616V590L374 600Q393 600 415 602T455 609T482 616ZM113 63L120 0H41V10Q41 10 47 10T54 10Q77 10 93 25T110 63H113ZM113 537H110Q110 560 94 575T54 590Q54 590 48 590T41 590V600H120L113 537ZM225 63H227Q228 41 244 26T284
10Q284 10 290 10T296 10V0H218L225 63Z" />
<glyph unicode="g" horiz-adv-x="734" d="M373 613Q419 613 463 607T547 590T615 562L623 410H615Q599 472 568 508T492 561T393 577Q321 577 270 544T192 448T165 297Q165 213 190 151T263 56T378 23Q413 23 445 33T503 63T546 113L547 238Q547 257 536 267T502
277H488V286H721V277H708Q663 277 664 237L663 108Q642 80 600 52T499 6T369 -13Q269 -13 195 25T80 133T39 301Q39 398 80 468T196 575T373 613Z" />
<glyph unicode="h" horiz-adv-x="749" d="M641 600V0H524V600H641ZM226 600V0H108V600H226ZM533 316V280H216V316H533ZM111 63V0H41V10Q41 10 46 10T53 10Q76 10 92 25T108 63H111ZM223 63H226Q226 41 242 26T282 10Q282 10 287 10T293 10V0H223V63ZM223 537V600H293V590Q293
590 288 590T282 590Q259 590 243 575T226 537H223ZM111 537H108Q108 560 92 575T53 590Q52 590 47 590T41 590V600H111V537ZM527 63V0H457V10Q457 10 462 10T468 10Q492 10 507 25T524 63H527ZM638 63H641Q642 41 658 26T697 10Q697 10 703 10T709 10V0H638V63ZM639
537V600H709V590Q709 590 703 590T697 590Q674 590 658 575T642 537H639ZM527 537H524Q523 560 508 575T468 590Q468 590 463 590T457 590V600H527V537Z" />
<glyph unicode="i" horiz-adv-x="347" d="M232 600V0H115V600H232ZM118 63V0H41V10Q41 10 47 10T54 10Q79 10 97 25T115 63H118ZM229 63H232Q233 41 250 26T294 10Q294 10 299 10T306 10V0H229V63ZM229 537V600H306L305 590Q305 590 300 590T294 590Q268 590 251
575T232 537H229ZM118 537H115Q115 560 97 575T54 590Q53 590 47 590T41 590V600H118V537Z" />
<glyph unicode="j" horiz-adv-x="330" d="M228 600V21Q228 -24 210 -61T159 -125T87 -165T2 -176V-166Q39 -152 63 -123T99 -55T111 22V600H228ZM115 600V536H112Q111 559 94 574T50 590H39L38 600H115ZM301 600V590H289Q265 590 247 575T228 536H226V600H301Z" />
<glyph unicode="k" horiz-adv-x="657" d="M348 363L585 62Q603 36 623 23T673 9V0H609Q599 0 578 1T530 8T477 29T428 70Q425 75 412 92T380 133T339 184T300 233T270 271T258 286L348 363ZM578 593L312 290L258 286L500 593H578ZM641 600V591H637Q608 591 583
581T540 550L467 551Q478 566 471 578T446 591H437V600H637H641ZM227 600V0H110V600H227ZM112 63V0H42V10Q42 10 47 10T53 10Q76 10 92 25T110 63H112ZM224 63H227Q227 41 243 26T284 10Q285 10 289 10T294 10V0H224V63ZM224 537V600H294V590Q294 590 290 590T283
590Q260 590 244 575T227 537H224ZM112 537H110Q109 560 93 575T53 590Q53 590 48 590T42 590V600H112V537Z" />
<glyph unicode="l" horiz-adv-x="545" d="M227 600V0H110V600H227ZM472 37L488 0H225V37H472ZM535 170L490 0H324L356 37Q402 37 434 53T489 100T525 170H535ZM112 63L119 0H41V10Q41 10 47 10T54 10Q77 10 93 25T110 63H112ZM224 537V600H295V590Q295 590 290
590T284 590Q260 590 244 575T227 537H224ZM112 537H110Q109 560 93 575T53 590Q52 590 47 590T41 590V600H112V537Z" />
<glyph unicode="m" horiz-adv-x="868" d="M702 613L711 523L454 84Q454 84 446 68T429 29T418 -17H409L378 58L702 613ZM97 65V0H-3V10Q-3 10 4 10T11 10Q36 10 55 24T78 65H97ZM136 50Q135 38 143 24T172 9H186V0H127L131 50H136ZM156 613H164L194 529L131 0H69L156
613ZM164 613L453 144L409 -17L142 424L164 613ZM711 613L801 0H673L618 411L702 613H711ZM771 65H791Q795 39 814 25T857 10Q857 10 864 10T872 10V0H771V65ZM666 50H672L676 0H617V9H631Q654 10 661 24T666 50Z" />
<glyph unicode="n" horiz-adv-x="779" d="M97 614L673 96L683 -13L107 506L97 614ZM100 61V0H26V10Q26 10 34 10T42 10Q65 10 81 24T97 61H100ZM203 61Q204 39 220 25T258 10Q258 10 266 10T275 10V0H201V61H203ZM97 614L203 495V0H97V497Q97 548 92 581T87 614H97ZM682
600V107Q682 73 684 46T689 3T692 -13H683L576 111V600H682ZM679 539V600H754V590Q754 590 746 590T737 590Q715 590 699 576T682 539H679ZM576 539Q575 561 559 575T521 590Q521 590 513 590T504 590V600H578V539H576Z" />
<glyph unicode="o" horiz-adv-x="776" d="M388 613Q464 613 528 591T639 528T711 430T737 300Q737 228 712 171T639 72T528 9T388 -13Q312 -13 248 9T138 72T66 170T40 300Q40 372 65 429T137 528T248 591T388 613ZM388 23Q453 23 503 57T581 153T610 300Q610
385 582 447T503 543T388 577Q323 577 273 543T195 447T167 300Q167 216 195 154T273 57T388 23Z" />
<glyph unicode="p" horiz-adv-x="575" d="M215 600H317Q393 600 444 579T520 519T547 433Q549 374 524 332T456 266T362 245T261 277V286Q261 286 273 285T304 287T345 299T386 330T416 387Q419 400 420 414T422 441Q421 498 386 531T289 564H225Q225 564 223
573T218 591T215 600ZM227 600V0H110V600H227ZM112 63L119 0H42V10Q42 10 48 10T54 10Q77 10 93 25T110 63H112ZM112 537H110Q109 560 93 575T54 590Q53 590 48 590T41 590V600H119L112 537ZM224 63H226Q227 41 242 26T282 10Q283 10 288 10T295 10L294 0H217L224
63Z" />
<glyph unicode="q" horiz-adv-x="770" d="M380 613Q455 613 517 591T625 528T695 430T720 300Q720 228 696 171T626 72T518 9T380 -13Q305 -13 243 9T136 72T65 170T40 300Q40 372 65 429T135 528T243 591T380 613ZM380 23Q443 23 491 57T566 153T594 300Q594
385 567 447T491 543T380 577Q318 577 270 543T194 447T167 300Q167 216 194 154T269 57T380 23ZM379 -13L361 19Q404 16 441 11T513 -4T587 -25T668 -54T764 -91Q821 -112 877 -122T986 -131T1086 -112T1170 -65L1174 -68Q1171 -103 1148 -136T1084 -195T988 -230T865
-231T722 -183Q676 -160 633 -133T547 -80T462 -36T379 -13Z" />
<glyph unicode="r" horiz-adv-x="648" d="M220 600H334Q378 600 416 591T484 563T530 512T547 437Q547 400 531 365T483 305T403 274Q428 266 453 240T493 191Q496 186 507 169T536 128T571 81Q591 55 607 40T640 17T680 10V0H614Q560 0 523 10T461 41T414 93Q407
104 396 123T372 162T350 201T337 230Q322 260 302 276T263 293V302Q264 302 274 302T299 302Q322 303 345 309T388 335T417 397Q420 405 421 417T422 444Q421 478 410 500T382 536T345 555T307 562Q278 563 256 563T229 562Q228 563 226 572T222 590T220 600ZM230
600V0H112V600H230ZM115 63L122 0H46V10Q46 10 51 10T58 10Q81 10 96 25T113 63H115ZM115 537H113Q112 560 97 575T59 590Q57 590 52 590T46 590V600H122L115 537ZM228 63H230Q231 40 248 25T286 10Q286 10 291 10T297 10L298 0H221L228 63Z" />
<glyph unicode="s" horiz-adv-x="497" d="M237 613Q260 613 285 612T335 607T377 601T403 594L395 480H386Q386 524 355 550T264 576Q216 576 184 553T151 493Q151 476 157 463T177 437T208 414L380 297Q414 277 433 242T451 161Q449 109 422 70T346 9T235 -13Q197
-13 161 -7T98 10T54 38Q48 56 49 82T56 135T72 181H82Q79 136 97 100T152 44T239 23Q298 24 329 51T360 120Q360 146 346 167T298 207L137 319Q94 344 76 382T62 464Q65 509 88 542T149 594T237 613ZM404 604L403 587H308V604H404Z" />
<glyph unicode="t" horiz-adv-x="592" d="M356 597V0H237V597H356ZM581 601V564H12V601H581ZM581 567V473H570V485Q571 520 551 541T493 564V567H581ZM581 617V591L473 601Q493 601 515 603T555 610T581 617ZM239 63V0H170V10Q170 10 175 10T181 10Q204 10 220
25T237 63H239ZM352 63H356Q356 41 372 26T412 10Q412 10 417 10T422 10V0H352V63ZM100 567V564Q63 563 43 542T22 485V473H12V567H100ZM12 617Q20 614 38 610T78 604T119 601L12 591V617Z" />
<glyph unicode="u" horiz-adv-x="703" d="M210 600V222Q210 129 255 76T379 22Q463 22 510 72T558 211V600H617V216Q617 109 552 48T367 -13Q232 -13 162 47T92 214V600H210ZM94 600V548H92Q91 566 78 578T46 591Q46 591 39 591T31 591V600H94ZM270 600V591Q270
591 263 591T255 591Q237 591 224 579T210 548H208V600H270ZM560 600V548H558Q558 566 545 578T512 591Q512 591 505 591T497 591V600H560ZM678 600V591Q678 591 671 591T664 591Q645 591 632 579T617 548H615V600H678Z" />
<glyph unicode="v" horiz-adv-x="646" d="M324 -13L36 594H176L368 139L324 -13ZM324 -13L319 87L540 597H610L377 102Q375 99 369 85T354 52T340 16T332 -13H324ZM511 531Q522 560 509 575T477 590H470V600H666V590Q666 590 662 590T658 590Q638 590 616 577T579
531H511ZM202 531H66Q51 563 30 576T-12 590Q-12 590 -16 590T-20 590V600H244V590H236Q220 590 206 575T202 531Z" />
<glyph unicode="w" horiz-adv-x="880" d="M46 594H176L320 192L279 -11L46 594ZM481 615L495 526L311 93Q311 93 306 77T295 37T288 -11H279L255 92L472 615H481ZM481 614L675 188L637 -11L425 450L481 614ZM829 594L664 93Q664 93 659 77T650 36T646 -11H637L614
82L767 594H829ZM748 534Q757 563 746 576T717 590H709V600H895V590Q895 590 892 590T888 590Q862 590 840 575T809 533L748 534ZM198 534L69 533Q59 560 38 575T-10 590Q-10 590 -14 590T-18 590V600H238V590H230Q214 590 201 577T198 534Z" />
<glyph unicode="x" horiz-adv-x="642" d="M197 599L594 1H456L61 599H197ZM161 62Q148 44 161 27T192 10Q192 10 197 10T203 10V0H-16V10H-4Q25 10 48 25T87 59L161 62ZM279 309L314 272L115 1L44 3L279 309ZM416 62L555 59Q569 40 593 25T647 10H659V0H373V10Q373
10 379 10T385 10Q403 10 415 27T416 62ZM280 601V591Q280 591 275 591T269 591Q251 591 239 574T238 539L100 542Q86 562 62 576T9 591H-4V601H280ZM576 599L364 295L334 344L502 599H576ZM639 601V591H626Q598 591 574 577T535 541L462 538Q473 557 462 574T431
591Q431 591 425 591T419 591V601H639Z" />
<glyph unicode="y" horiz-adv-x="637" d="M180 599L368 272L265 251L42 599H180ZM377 267V0H258V266L377 267ZM527 599H597L368 247L324 257L527 599ZM490 537Q501 556 491 573T460 590Q460 590 454 590T448 590V600H661V590H648Q621 590 597 575T559 540L490
537ZM216 538L79 541Q64 563 41 576T-10 590H-22V600H257V590Q257 590 252 590T246 590Q225 590 216 573T216 538ZM261 63V0H190V10Q191 10 196 10T202 10Q225 10 241 25T258 63H261ZM374 63H377Q378 41 394 26T433 10Q433 10 439 10T445 10V0H374V63Z" />
<glyph unicode="z" horiz-adv-x="607" d="M543 613Q543 613 543 609T543 605L178 0H40V9L384 565H54V601H437Q457 601 479 603T519 608T543 613ZM540 36L533 0H106V36H540ZM589 170L542 0H372L406 36Q453 37 486 53T542 99T579 170H589ZM54 567H143V565Q106 564
86 542T65 484V473H54V567ZM54 617Q63 614 81 611T122 605T164 601L54 591V617Z" />
<glyph unicode="{" horiz-adv-x="365" d="M134 340Q139 353 134 382T123 447T116 519Q116 578 138 626T208 704T332 733L334 725Q288 713 268 686T243 617T238 525Q238 474 235 438T222 378T197 339T153 316Q180 309 196 293T222 252T234 192T238 114Q238 75 239
41T247 -19T273 -64T326 -92L324 -100Q248 -100 203 -71T137 7T116 113Q116 149 122 185T132 250T131 292Q126 305 112 309T85 314V324Q99 325 113 327T134 340Z" />
<glyph unicode="|" horiz-adv-x="253" d="M100 700H153V-180H100V700Z" />
<glyph unicode="}" horiz-adv-x="365" d="M34 733Q111 733 158 704T228 627T250 519Q250 484 244 448T232 382T232 340Q237 329 252 327T281 324V314Q269 313 255 309T235 292Q230 279 234 250T244 185T250 113Q250 56 230 8T165 -70T42 -100L40 -92Q75 -83 93
-65T118 -20T127 41T128 114Q128 158 131 192T144 251T170 293T213 316Q187 324 170 339T144 378T132 438T128 525Q128 576 123 617T98 685T32 725L34 733Z" />
<glyph unicode="~" horiz-adv-x="493" d="M90 215H37Q28 264 40 296T80 344T140 362Q167 362 195 348T251 314T303 279T346 263Q367 262 384 273T407 305T402 357H456Q469 307 455 274T411 226T346 210Q319 210 292 224T238 258T187 293T140 309Q113 310 97 289T90 215Z" />
<glyph unicode="&#xa0;" horiz-adv-x="250" />
<glyph unicode="&#xa1;" horiz-adv-x="256" d="M129 710Q155 710 173 692T192 647Q192 621 174 603T129 584Q103 584 85 602T66 647Q66 673 84 691T129 710ZM112 506H146L176 315L192 0H65L81 315L112 506Z" />
<glyph unicode="&#xa2;" horiz-adv-x="592" d="M551 304L556 178Q529 133 474 105T339 76Q247 77 179 109T74 202T36 347Q36 431 73 491T179 584T339 617Q395 617 445 605T530 574L536 441H529Q515 495 489 525T426 569T345 582Q251 582 204 521T156 348Q156 238
203 176T339 111Q400 111 442 130T510 191T544 304H551ZM353 701L390 700L332 -9L296 -6L353 701Z" />
<glyph unicode="&#xa3;" horiz-adv-x="594" d="M576 183L530 24Q498 9 459 1T384 -9T321 -8Q277 -2 244 7T181 22T120 24Q113 23 100 19T75 8T57 -4H47V6Q69 30 91 78T129 199T140 370Q138 439 148 499T184 606T256 680T371 714Q432 719 474 701T538 657L503 546H493Q495
594 483 623T446 665T386 676Q329 672 302 634T268 530T265 377Q268 294 260 240T233 151T191 97T140 62Q180 76 224 69T323 56Q368 53 413 62T499 101T566 183H576ZM56 369H447L431 325H42L56 369Z" />
<glyph unicode="&#xa4;" horiz-adv-x="541" d="M119 503Q161 545 215 558T324 559T420 503Q462 461 475 407T476 298T420 201Q379 160 325 146T216 146T119 201Q78 243 64 297T64 406T119 503ZM140 481Q104 446 92 399T92 306T140 223Q176 187 222 175T316 175T399
223Q435 259 446 305T447 399T399 481Q363 517 316 529T223 529T140 481ZM50 553L71 574L143 503L121 481L50 553ZM399 204L420 225L492 154L470 132L399 204ZM71 132L50 154L121 225L143 204L71 132ZM420 481L399 503L470 574L492 553L420 481Z" />
<glyph unicode="&#xa5;" horiz-adv-x="689" d="M192 699L394 329L285 308L49 699H192ZM402 322V0H280V322H402ZM569 699H641L393 302L347 312L569 699ZM528 628Q536 642 532 656T518 680T493 690Q493 690 487 690T481 690V700H714V690H700Q669 690 642 672T599
631L528 628ZM231 628L90 631Q76 654 49 672T-10 690H-24V700H279V690Q279 690 273 690T266 690Q244 690 233 670T231 628ZM283 73V0H203V10Q203 10 209 10T216 10Q242 10 260 28T280 73H283ZM399 73H402Q402 47 421 29T466 10Q466 10 472 10T478 10V0H399V73ZM101
303H580V265H101V303ZM101 419H295V381H101V419ZM421 419H580V381H421V419Z" />
<glyph unicode="&#xa6;" horiz-adv-x="253" d="M100 170H153V-180H100V170ZM100 700H153V350H100V700Z" />
<glyph unicode="&#xa7;" horiz-adv-x="521" d="M299 711Q344 716 376 706T426 679T446 641T434 604Q421 589 406 590T375 602T342 628T306 653T268 666T227 652Q207 639 203 620T208 578T238 526T288 464T356 391Q423 320 450 245T473 101T436 -24T351 -114T234
-154Q189 -158 156 -149T102 -122T78 -83T90 -45Q104 -29 118 -29T150 -41T185 -68T223 -94T263 -106T305 -93Q335 -71 328 -36T280 50T165 172Q106 231 78 292T49 412T68 524T123 616T204 682T299 711ZM141 583Q121 542 115 502T118 422T156 340T233 252Q287 201
323 155T374 67T381 -17Q402 21 407 59T402 138T362 222T287 313Q242 357 213 391T168 455T146 515T141 583Z" />
<glyph unicode="&#xa8;" horiz-adv-x="600" d="M171 686Q149 686 134 701T118 739Q118 762 133 777T171 792Q194 792 209 777T224 739Q224 717 209 702T171 686ZM390 686Q368 686 353 701T337 739Q337 762 352 777T390 792Q412 792 427 777T443 739Q443 717 428
702T390 686Z" />
<glyph unicode="&#xa9;" horiz-adv-x="848" d="M424 714Q499 714 565 686T681 607T759 491T788 350Q788 275 760 209T681 93T565 15T424 -14Q349 -14 283 14T167 93T89 209T60 350Q60 425 88 491T167 607T283 685T424 714ZM424 671Q358 671 300 646T197 577T128
475T103 350Q103 284 128 226T197 123T299 54T424 29Q491 29 549 54T651 123T720 225T745 350Q745 417 720 475T651 577T549 646T424 671ZM620 320L625 218Q595 176 545 152T432 127Q364 128 311 157T226 236T195 350Q195 414 226 464T311 544T432 573Q476 573
521 562T600 530L606 422H600Q582 478 540 509T435 541Q392 541 359 517T308 450T289 350Q289 294 307 251T359 184T436 159Q508 159 556 198T614 320H620Z" />
<glyph unicode="&#xaa;" horiz-adv-x="377" d="M187 712L349 381H260L161 621L187 712ZM88 416Q81 400 89 391T107 382H112V378H-2V382Q-2 382 0 382T2 382Q14 382 26 390T46 416H88ZM187 712L190 641L72 379H29L158 647Q160 650 165 663T176 690T183 712H187ZM239
492V467H97V492H239ZM246 416H332Q341 398 352 390T375 382Q375 382 377 382T379 382V378H223V382H228Q237 382 245 391T246 416Z" />
<glyph unicode="&#xab;" horiz-adv-x="489" d="M40 292L235 89L244 95L141 292L243 485L235 490L40 292ZM225 292L421 89L430 95L327 292L429 485L421 490L225 292Z" />
<glyph unicode="&#xac;" horiz-adv-x="601" d="M40 401H562V348H40V401ZM509 401H562V195H509V401Z" />
<glyph unicode="&#xad;" horiz-adv-x="380" d="M40 321H340L348 292L340 262H40L32 292L40 321Z" />
<glyph unicode="&#xae;" horiz-adv-x="245" d="M123 701Q154 701 179 686T220 645T236 588Q236 557 221 532T180 491T123 475Q92 475 67 490T26 531T10 588Q10 619 25 644T66 685T123 701ZM82 531H66V533Q66 533 67 533T68 533Q79 533 79 544L82 531ZM106 544Q106
533 116 533Q116 533 117 533T119 533V531H103L106 544ZM106 651V531H79V651H106ZM82 651L79 638Q79 649 68 649Q68 649 67 649T66 649V651H82ZM126 651Q144 651 156 643T169 618Q169 604 161 596T139 585Q146 584 154 573T168 552Q170 549 175 543T189 533V531H174Q149
531 140 546T122 576Q119 581 117 585T111 589V591Q111 591 114 591T122 591Q125 591 130 594T138 608Q140 614 139 620Q139 642 117 641L104 642Q104 642 103 646T102 651H126ZM123 679Q85 679 59 653T32 588Q32 550 58 524T123 497Q161 497 187 523T214 588Q214
626 188 652T123 679Z" />
<glyph unicode="&#xaf;" horiz-adv-x="600" d="M162 758H428V703H162V758Z" />
<glyph unicode="&#xb0;" horiz-adv-x="249" d="M125 664Q166 664 194 636T223 566Q223 525 195 496T125 467Q84 467 55 496T26 566Q26 607 55 635T125 664ZM125 617Q103 617 88 603T73 566Q73 544 88 530T125 515Q147 515 161 529T176 566Q176 588 162 602T125 617Z" />
<glyph unicode="&#xb1;" horiz-adv-x="481" d="M40 109H442V56H40V109ZM214 179V581H267V179H214ZM40 406H442V353H40V406Z" />
<glyph unicode="&#xb2;" horiz-adv-x="393" d="M62 580L35 672Q59 693 95 704T169 716Q214 716 249 702T306 661T327 598Q327 560 309 527T263 467T206 419T153 384H273Q300 384 317 397T351 442H357L322 308H33V314Q63 348 97 383T162 455T213 529T233 604Q233
644 210 667T151 688Q114 686 91 659T69 580H62Z" />
<glyph unicode="&#xb3;" horiz-adv-x="336" d="M151 713Q211 713 248 688T285 619Q285 591 267 571T224 541T175 538Q201 541 230 531T280 497T301 437Q301 389 277 356T214 305T126 286T29 301L30 307Q80 306 120 320T185 365T210 441Q210 473 194 492T152 520T93
529L94 535Q138 534 169 560T197 628Q195 659 175 673T129 686Q93 684 77 663T61 594H55L32 675Q50 693 80 703T151 713Z" />
<glyph unicode="&#xb4;" horiz-adv-x="504" d="M202 752Q220 779 244 807T293 860T340 905Q362 891 376 874T399 833Q370 816 338 799T273 769T209 745L202 752Z" />
<glyph unicode="&#xb5;" horiz-adv-x="868" d="M702 613L711 523L454 84Q454 84 446 68T429 29T418 -17H409L378 58L702 613ZM97 65V0H-3V10Q-3 10 4 10T11 10Q36 10 55 24T78 65H97ZM136 50Q135 38 143 24T172 9H186V0H127L131 50H136ZM156 613H164L194 529L131
0H69L156 613ZM164 613L453 144L409 -17L142 424L164 613ZM711 613L801 0H673L618 411L702 613H711ZM771 65H791Q795 39 814 25T857 10Q857 10 864 10T872 10V0H771V65ZM666 50H672L676 0H617V9H631Q654 10 661 24T666 50Z" />
<glyph unicode="&#xb6;" horiz-adv-x="528" d="M511 743L518 737Q512 719 499 702T464 674T413 662H287V0Q287 -38 281 -76T254 -147T193 -199L186 -190Q214 -161 227 -136T245 -80T249 0L246 333Q191 333 147 355T76 419T50 517Q51 574 77 615T147 678T246 700H415Q426
700 440 701T473 710T511 743ZM408 687V147Q408 109 402 81T384 30T352 -13L343 -5Q358 20 363 41T369 87T370 145V687H408Z" />
<glyph unicode="&#xb7;" horiz-adv-x="202" d="M101 289Q75 289 57 307T38 352Q38 379 56 397T101 415Q128 415 146 397T164 352Q164 326 146 308T101 289Z" />
<glyph unicode="&#xb8;" horiz-adv-x="600" d="M283 1H325L283 -48Q296 -43 315 -43T352 -47T382 -67T393 -108Q393 -141 368 -162T307 -191T233 -186L234 -176Q255 -176 277 -170T314 -148T330 -107Q330 -86 315 -76T279 -65T240 -72Q240 -72 238 -67T235 -62L283 1Z" />
<glyph unicode="&#xb9;" horiz-adv-x="244" d="M220 308V315H207Q193 315 183 324T173 347V714H167Q154 704 137 697T101 686T65 679T36 675V669H52Q69 669 78 661T87 632V348Q87 334 78 325T53 315H41V308H220Z" />
<glyph unicode="&#xba;" horiz-adv-x="407" d="M204 712Q257 712 297 691T359 631T382 542Q382 492 360 454T297 395T204 373Q152 373 112 394T49 454T26 542Q26 593 48 631T111 690T204 712ZM204 396Q248 396 274 436T300 542Q300 609 274 649T204 689Q174 689
153 671T119 620T107 542Q107 499 119 466T152 415T204 396Z" />
<glyph unicode="&#xbb;" horiz-adv-x="489" d="M450 292L254 490L246 485L348 292L245 95L254 89L450 292ZM264 292L69 490L61 485L163 292L60 95L69 89L264 292Z" />
<glyph unicode="&#xbc;" horiz-adv-x="728" d="M220 308V315H207Q193 315 183 324T173 347V714H167Q154 704 137 697T101 686T65 679T36 675V669H52Q69 669 78 661T87 632V348Q87 334 78 325T53 315H41V308H220ZM100 6L134 -16L611 695L578 718L100 6ZM545 310L623
407H629V1H545V310ZM622 407L629 370L438 165H657Q675 165 682 169T695 184H701L685 115H358V122L622 407ZM629 41Q629 27 639 17T664 7H671V0H502V7H509Q524 7 534 16T545 41H629Z" />
<glyph unicode="&#xbd;" horiz-adv-x="823" d="M228 308V315H215Q201 315 191 324T181 347V714H175Q162 704 145 697T109 686T73 679T44 675V669H60Q77 669 86 661T95 632V348Q95 334 86 325T61 315H49V308H228ZM98 6L132 -16L609 695L576 718L98 6ZM488 272L461
364Q485 385 521 396T595 408Q640 408 675 394T732 353T753 290Q753 252 735 219T689 159T632 111T579 76H699Q726 76 743 89T777 134H783L748 0H459V6Q489 40 523 75T588 147T639 221T659 296Q659 336 636 359T577 380Q540 378 517 351T495 272H488Z" />
<glyph unicode="&#xbe;" horiz-adv-x="762" d="M151 713Q211 713 248 688T285 619Q285 591 267 571T224 541T175 538Q201 541 230 531T280 497T301 437Q301 389 277 356T214 305T126 286T29 301L30 307Q80 306 120 320T185 365T210 441Q210 473 194 492T152 520T93
529L94 535Q138 534 169 560T197 628Q195 659 175 673T129 686Q93 684 77 663T61 594H55L32 675Q50 693 80 703T151 713ZM159 6L193 -16L670 695L637 718L159 6ZM587 310L665 407H671V1H587V310ZM664 407L671 370L480 165H699Q717 165 724 169T737 184H743L727
115H400V122L664 407ZM671 41Q671 27 681 17T706 7H713V0H544V7H551Q566 7 576 16T587 41H671Z" />
<glyph unicode="&#xbf;" horiz-adv-x="469" d="M433 75Q411 34 365 10T257 -14Q155 -14 99 32T42 159Q42 193 53 220T83 270T124 314T168 357T207 405Q218 420 226 435T234 468T221 506L229 512Q262 493 280 466T296 404Q295 378 282 357T251 315T215 272T185
221T174 155Q174 93 203 59T282 24Q336 24 367 63T397 178H407L433 75ZM247 708Q273 708 291 690T310 645Q310 619 292 601T247 582Q220 582 202 600T184 645Q184 672 202 690T247 708Z" />
<glyph unicode="&#xc0;" horiz-adv-x="715" d="M356 718L672 6H524L309 558L356 718ZM141 73Q133 53 138 39T155 18T179 10H188V0H-22V10Q-22 10 -18 10T-13 10Q10 10 34 24T75 73H141ZM356 718L361 613L112 3H44L302 596Q304 600 310 615T325 651T340 689T347
718H356ZM473 250V212H172V250H473ZM498 73H642Q658 39 682 25T730 10Q730 10 734 10T738 10V0H451V10H460Q479 10 494 26T498 73ZM369 771L362 764Q331 774 298 787T233 818T172 852Q181 876 195 893T231 924Q252 904 277 879T326 826T369 771Z" />
<glyph unicode="&#xc1;" horiz-adv-x="715" d="M356 718L672 6H524L309 558L356 718ZM141 73Q133 53 138 39T155 18T179 10H188V0H-22V10Q-22 10 -18 10T-13 10Q10 10 34 24T75 73H141ZM356 718L361 613L112 3H44L302 596Q304 600 310 615T325 651T340 689T347
718H356ZM473 250V212H172V250H473ZM498 73H642Q658 39 682 25T730 10Q730 10 734 10T738 10V0H451V10H460Q479 10 494 26T498 73ZM340 770Q358 797 382 825T431 878T478 923Q500 909 514 892T537 851Q508 834 476 817T411 787T347 763L340 770Z" />
<glyph unicode="&#xc2;" horiz-adv-x="715" d="M356 718L672 6H524L309 558L356 718ZM141 73Q133 53 138 39T155 18T179 10H188V0H-22V10Q-22 10 -18 10T-13 10Q10 10 34 24T75 73H141ZM356 718L361 613L112 3H44L302 596Q304 600 310 615T325 651T340 689T347
718H356ZM473 250V212H172V250H473ZM498 73H642Q658 39 682 25T730 10Q730 10 734 10T738 10V0H451V10H460Q479 10 494 26T498 73ZM216 765L222 757L352 823L492 757L498 765L358 907H347L216 765Z" />
<glyph unicode="&#xc3;" horiz-adv-x="715" d="M356 718L672 6H524L309 558L356 718ZM141 73Q133 53 138 39T155 18T179 10H188V0H-22V10Q-22 10 -18 10T-13 10Q10 10 34 24T75 73H141ZM356 718L361 613L112 3H44L302 596Q304 600 310 615T325 651T340 689T347
718H356ZM473 250V212H172V250H473ZM498 73H642Q658 39 682 25T730 10Q730 10 734 10T738 10V0H451V10H460Q479 10 494 26T498 73ZM214 767H225Q231 780 240 790T264 807T294 812Q318 810 339 798T384 775T432 764Q455 764 472 774T500 800T515 836T518 874H507Q503
864 493 855T469 840T437 836Q413 838 391 850T347 872T300 883Q278 883 262 873T235 845T219 808T214 767Z" />
<glyph unicode="&#xc4;" horiz-adv-x="715" d="M356 718L672 6H524L309 558L356 718ZM141 73Q133 53 138 39T155 18T179 10H188V0H-22V10Q-22 10 -18 10T-13 10Q10 10 34 24T75 73H141ZM356 718L361 613L112 3H44L302 596Q304 600 310 615T325 651T340 689T347
718H356ZM473 250V212H172V250H473ZM498 73H642Q658 39 682 25T730 10Q730 10 734 10T738 10V0H451V10H460Q479 10 494 26T498 73ZM243 761Q221 761 206 776T190 814Q190 837 205 852T243 867Q266 867 281 852T296 814Q296 792 281 777T243 761ZM462 761Q440 761
425 776T409 814Q409 837 424 852T462 867Q484 867 499 852T515 814Q515 792 500 777T462 761Z" />
<glyph unicode="&#xc5;" horiz-adv-x="715" d="M356 714L672 6H524L309 554L356 714ZM141 73Q133 53 138 39T155 18T179 10H188V0H-22V10Q-22 10 -18 10T-13 10Q10 10 34 24T75 73H141ZM356 714L361 609L112 3H44L302 592Q304 596 310 611T325 647T340 685T347
714H356ZM473 250V212H172V250H473ZM498 73H642Q658 39 682 25T730 10Q730 10 734 10T738 10V0H451V10H460Q479 10 494 26T498 73ZM353 839Q391 839 417 821T443 769Q443 738 417 718T352 698Q315 698 289 718T262 769Q262 800 288 819T353 839ZM352 822Q334 822
322 808T309 769Q309 745 321 731T352 717Q371 717 383 731T396 769Q396 793 384 807T352 822Z" />
<glyph unicode="&#xc6;" horiz-adv-x="949" d="M155 69Q145 53 147 40T161 18T186 10H195V0H-19V10Q-19 10 -16 10T-12 10Q13 10 36 27T79 72L155 69ZM588 700V0H466V654L588 700ZM468 58V0H406L407 10Q407 10 411 10T416 10Q436 10 450 24T466 58H468ZM858 39V0H585V39H858ZM811
357V319H293L298 357H811ZM857 700V661H515L488 623L115 3H34L459 649Q468 666 461 678T438 690H434V700H857ZM916 177L867 0H697L730 39Q795 39 840 76T906 177H916ZM811 321V235H801V245Q801 276 780 297T728 319V321H811ZM811 441V355H728V357Q759 358 780 379T801
431V441H811ZM857 664V567H847V580Q848 616 826 638T766 661V664H857ZM857 718V689L735 700Q757 700 781 703T827 710T857 718Z" />
<glyph unicode="&#xc7;" horiz-adv-x="773" d="M718 292L720 125Q697 86 659 55T567 5T439 -14Q323 -13 235 31T99 156T50 351Q50 462 98 543T234 669T443 714Q521 714 583 697T688 655L696 494H687Q662 589 599 632T450 676Q368 676 309 637T217 525T184 353Q184
254 215 181T304 67T439 24Q514 24 569 49T660 134T710 292H718ZM406 248H448L406 199Q419 204 438 204T475 200T505 180T516 139Q516 106 491 85T430 56T356 61L357 71Q378 71 400 77T437 99T453 140Q453 161 438 171T402 182T363 175Q363 175 361 180T358 185L406
248Z" />
<glyph unicode="&#xc8;" horiz-adv-x="613" d="M247 700V0H125V700H247ZM512 39L529 0H244V39H512ZM474 364V326H244V364H474ZM521 700V661H244V700H521ZM582 190L532 0H345L381 39Q432 39 469 57T531 110T572 190H582ZM474 328V242H464V253Q464 284 443 305T391
326V328H474ZM474 448V362H391V364Q422 365 443 386T464 438V448H474ZM521 664V560H511V574Q511 612 487 636T423 662V664H521ZM521 718V689L399 700Q421 700 445 703T491 710T521 718ZM128 73V0H48V10Q48 10 54 10T61 10Q87 10 105 28T125 73H128ZM128 627H125Q124
653 106 671T61 690Q61 690 55 690T48 690V700H128V627ZM331 771L324 764Q293 774 260 787T195 818T134 852Q143 876 157 893T193 924Q214 904 239 879T288 826T331 771Z" />
<glyph unicode="&#xc9;" horiz-adv-x="613" d="M247 700V0H125V700H247ZM512 39L529 0H244V39H512ZM474 364V326H244V364H474ZM521 700V661H244V700H521ZM582 190L532 0H345L381 39Q432 39 469 57T531 110T572 190H582ZM474 328V242H464V253Q464 284 443 305T391
326V328H474ZM474 448V362H391V364Q422 365 443 386T464 438V448H474ZM521 664V560H511V574Q511 612 487 636T423 662V664H521ZM521 718V689L399 700Q421 700 445 703T491 710T521 718ZM128 73V0H48V10Q48 10 54 10T61 10Q87 10 105 28T125 73H128ZM128 627H125Q124
653 106 671T61 690Q61 690 55 690T48 690V700H128V627ZM301 770Q319 797 343 825T392 878T439 923Q461 909 475 892T498 851Q469 834 437 817T372 787T308 763L301 770Z" />
<glyph unicode="&#xca;" horiz-adv-x="613" d="M247 700V0H125V700H247ZM512 39L529 0H244V39H512ZM474 364V326H244V364H474ZM521 700V661H244V700H521ZM582 190L532 0H345L381 39Q432 39 469 57T531 110T572 190H582ZM474 328V242H464V253Q464 284 443 305T391
326V328H474ZM474 448V362H391V364Q422 365 443 386T464 438V448H474ZM521 664V560H511V574Q511 612 487 636T423 662V664H521ZM521 718V689L399 700Q421 700 445 703T491 710T521 718ZM128 73V0H48V10Q48 10 54 10T61 10Q87 10 105 28T125 73H128ZM128 627H125Q124
653 106 671T61 690Q61 690 55 690T48 690V700H128V627ZM178 765L184 757L314 823L454 757L460 765L320 907H309L178 765Z" />
<glyph unicode="&#xcb;" horiz-adv-x="613" d="M247 700V0H125V700H247ZM512 39L529 0H244V39H512ZM474 364V326H244V364H474ZM521 700V661H244V700H521ZM582 190L532 0H345L381 39Q432 39 469 57T531 110T572 190H582ZM474 328V242H464V253Q464 284 443 305T391
326V328H474ZM474 448V362H391V364Q422 365 443 386T464 438V448H474ZM521 664V560H511V574Q511 612 487 636T423 662V664H521ZM521 718V689L399 700Q421 700 445 703T491 710T521 718ZM128 73V0H48V10Q48 10 54 10T61 10Q87 10 105 28T125 73H128ZM128 627H125Q124
653 106 671T61 690Q61 690 55 690T48 690V700H128V627ZM204 761Q182 761 167 776T151 814Q151 837 166 852T204 867Q227 867 242 852T257 814Q257 792 242 777T204 761ZM423 761Q401 761 386 776T370 814Q370 837 385 852T423 867Q445 867 460 852T476 814Q476
792 461 777T423 761Z" />
<glyph unicode="&#xcc;" horiz-adv-x="370" d="M247 700V0H125V700H247ZM128 73V0H48V10Q48 10 54 10T61 10Q87 10 105 28T125 73H128ZM128 627H125Q124 653 106 671T61 690Q61 690 55 690T48 690V700H128V627ZM244 73H247Q248 47 266 29T311 10Q311 10 317 10T324
10V0H244V73ZM244 627V700H324V690Q323 690 317 690T311 690Q285 690 267 672T247 627H244ZM204 771L197 764Q167 774 134 787T69 818T7 852Q16 876 30 893T66 924Q88 905 113 880T162 827T204 771Z" />
<glyph unicode="&#xcd;" horiz-adv-x="370" d="M247 700V0H125V700H247ZM128 73V0H48V10Q48 10 54 10T61 10Q87 10 105 28T125 73H128ZM128 627H125Q124 653 106 671T61 690Q61 690 55 690T48 690V700H128V627ZM244 73H247Q248 47 266 29T311 10Q311 10 317 10T324
10V0H244V73ZM244 627V700H324V690Q323 690 317 690T311 690Q285 690 267 672T247 627H244ZM428 770Q446 797 470 825T519 878T566 923Q588 909 602 892T625 851Q596 834 564 817T499 787T435 763L428 770Z" />
<glyph unicode="&#xce;" horiz-adv-x="370" d="M247 700V0H125V700H247ZM128 73V0H48V10Q48 10 54 10T61 10Q87 10 105 28T125 73H128ZM128 627H125Q124 653 106 671T61 690Q61 690 55 690T48 690V700H128V627ZM244 73H247Q248 47 266 29T311 10Q311 10 317 10T324
10V0H244V73ZM244 627V700H324V690Q323 690 317 690T311 690Q285 690 267 672T247 627H244ZM304 765L310 757L440 823L580 757L586 765L446 907H435L304 765Z" />
<glyph unicode="&#xcf;" horiz-adv-x="370" d="M247 700V0H125V700H247ZM128 73V0H48V10Q48 10 54 10T61 10Q87 10 105 28T125 73H128ZM128 627H125Q124 653 106 671T61 690Q61 690 55 690T48 690V700H128V627ZM244 73H247Q248 47 266 29T311 10Q311 10 317 10T324
10V0H244V73ZM244 627V700H324V690Q323 690 317 690T311 690Q285 690 267 672T247 627H244ZM330 761Q308 761 293 776T277 814Q277 837 292 852T330 867Q353 867 368 852T383 814Q383 792 368 777T330 761ZM549 761Q527 761 512 776T496 814Q496 837 511 852T549
867Q571 867 586 852T602 814Q602 792 587 777T549 761Z" />
<glyph unicode="&#xd0;" horiz-adv-x="821" d="M48 369H390V331H48V369ZM405 700Q520 700 603 658T732 536T778 350Q778 243 733 165T604 43T405 0H176L175 38Q194 38 222 38T281 38T337 38T380 38T397 38Q474 38 530 76T618 185T650 350Q650 445 619 515T531
623T397 662Q397 662 380 662T335 662T276 662T215 662T165 662V700H405ZM250 700V0H128V700H250ZM131 73V0H51V10Q51 10 57 10T64 10Q90 10 108 28T128 73H131ZM131 627H128Q127 653 109 671T64 690Q64 690 58 690T51 690V700H131V627Z" />
<glyph unicode="&#xd1;" horiz-adv-x="857" d="M114 715L733 103L744 -14L125 597L114 715ZM118 71V0H35V10Q35 10 44 10T54 10Q79 10 97 28T115 71H118ZM226 71Q226 46 244 28T287 10Q288 10 297 10T306 10V0H223V71H226ZM114 715L225 594L226 0H115V590Q115
644 110 679T104 715H114ZM742 700V114Q742 78 745 49T750 3T753 -14H744L633 111V700H742ZM822 700V690Q822 690 813 690T804 690Q779 690 761 673T742 629H739V700H822ZM552 700H635V629H633Q632 655 615 672T571 690Q571 690 562 690T552 690V700ZM281 767H292Q298
780 307 790T331 807T361 812Q385 810 406 798T451 775T499 764Q522 764 539 774T567 800T582 836T585 874H574Q570 864 560 855T536 840T504 836Q480 838 458 850T414 872T367 883Q345 883 329 873T302 845T286 808T281 767Z" />
<glyph unicode="&#xd2;" horiz-adv-x="865" d="M438 714Q553 714 639 670T773 543T820 350Q820 239 773 157T640 31T438 -14Q322 -14 236 30T103 157T56 350Q56 461 103 543T236 669T438 714ZM438 24Q514 24 570 64T656 177T687 350Q687 450 657 523T570 636T438
676Q362 676 306 636T220 523T189 350Q189 250 219 177T306 64T438 24ZM453 777L446 770Q415 779 382 793T317 823T255 858Q265 882 279 899T315 930Q336 910 361 885T410 832T453 777Z" />
<glyph unicode="&#xd3;" horiz-adv-x="865" d="M438 714Q553 714 639 670T773 543T820 350Q820 239 773 157T640 31T438 -14Q322 -14 236 30T103 157T56 350Q56 461 103 543T236 669T438 714ZM438 24Q513 24 568 64T654 177T685 350Q685 450 655 523T569 636T438
676Q363 676 308 636T222 523T191 350Q191 250 221 177T307 64T438 24ZM424 776Q442 803 466 831T515 884T562 929Q584 915 598 898T621 857Q592 840 560 823T495 793T431 769L424 776Z" />
<glyph unicode="&#xd4;" horiz-adv-x="865" d="M438 714Q553 714 639 670T773 543T820 350Q820 239 773 157T640 31T438 -14Q322 -14 236 30T103 157T56 350Q56 461 103 543T236 669T438 714ZM438 24Q513 24 568 64T654 177T685 350Q685 450 655 523T569 636T438
676Q363 676 308 636T222 523T191 350Q191 250 221 177T307 64T438 24ZM301 771L307 763L437 829L577 763L583 771L443 913H432L301 771Z" />
<glyph unicode="&#xd5;" horiz-adv-x="865" d="M438 714Q553 714 639 670T773 543T820 350Q820 239 773 157T640 31T438 -14Q322 -14 236 30T103 157T56 350Q56 461 103 543T236 669T438 714ZM438 24Q513 24 568 64T654 177T685 350Q685 450 655 523T569 636T438
676Q363 676 308 636T222 523T191 350Q191 250 221 177T307 64T438 24ZM298 773H309Q315 786 324 796T348 813T378 818Q402 816 423 804T468 781T516 770Q539 770 556 780T584 806T599 842T602 880H591Q587 870 577 861T553 846T521 842Q497 844 475 856T431 878T384
889Q362 889 346 879T319 851T303 814T298 773Z" />
<glyph unicode="&#xd6;" horiz-adv-x="865" d="M438 714Q553 714 639 670T773 543T820 350Q820 239 773 157T640 31T438 -14Q322 -14 236 30T103 157T56 350Q56 461 103 543T236 669T438 714ZM438 24Q513 24 568 64T654 177T685 350Q685 450 655 523T569 636T438
676Q363 676 308 636T222 523T191 350Q191 250 221 177T307 64T438 24ZM326 766Q304 766 289 781T273 819Q273 842 288 857T326 872Q349 872 364 857T379 819Q379 797 364 782T326 766ZM545 766Q523 766 508 781T492 819Q492 842 507 857T545 872Q567 872 582 857T598
819Q598 797 583 782T545 766Z" />
<glyph unicode="&#xd7;" horiz-adv-x="413" d="M84 471L368 187L330 149L46 433L84 471ZM368 433L84 149L46 187L330 471L368 433Z" />
<glyph unicode="&#xd8;" horiz-adv-x="859" d="M435 714Q550 714 635 670T767 543T814 350Q814 239 768 157T636 31T435 -14Q319 -14 234 30T103 157T56 350Q56 461 102 543T234 669T435 714ZM435 24Q511 24 567 64T653 177T684 350Q684 450 654 523T567 636T435
676Q359 676 303 636T217 523T186 350Q186 250 216 177T303 64T435 24ZM714 724L748 697L141 -23L108 5L714 724Z" />
<glyph unicode="&#xd9;" horiz-adv-x="809" d="M233 700V260Q233 189 257 136T327 54T432 25Q496 25 542 52T613 129T639 247V700H702V251Q702 171 668 112T571 19T420 -14Q322 -14 253 18T147 110T111 250V700H233ZM114 700V640H111Q111 662 96 676T58 690Q58
690 50 690T42 690V700H114ZM302 700V690Q302 690 294 690T286 690Q264 690 249 676T233 640H231V700H302ZM642 700V640H639Q639 662 624 676T586 690Q586 690 578 690T570 690V700H642ZM771 700V690Q771 690 763 690T755 690Q733 690 718 676T702 640H700V700H771ZM450
771L443 764Q412 774 379 787T314 818T253 852Q262 876 276 893T312 924Q333 904 358 879T407 826T450 771Z" />
<glyph unicode="&#xda;" horiz-adv-x="809" d="M233 700V260Q233 189 257 136T327 54T432 25Q496 25 542 52T613 129T639 247V700H702V251Q702 171 668 112T571 19T420 -14Q322 -14 253 18T147 110T111 250V700H233ZM114 700V640H111Q111 662 96 676T58 690Q58
690 50 690T42 690V700H114ZM302 700V690Q302 690 294 690T286 690Q264 690 249 676T233 640H231V700H302ZM642 700V640H639Q639 662 624 676T586 690Q586 690 578 690T570 690V700H642ZM771 700V690Q771 690 763 690T755 690Q733 690 718 676T702 640H700V700H771ZM421
770Q439 797 463 825T512 878T559 923Q581 909 595 892T618 851Q589 834 557 817T492 787T428 763L421 770Z" />
<glyph unicode="&#xdb;" horiz-adv-x="809" d="M233 700V260Q233 189 257 136T327 54T432 25Q496 25 542 52T613 129T639 247V700H702V251Q702 171 668 112T571 19T420 -14Q322 -14 253 18T147 110T111 250V700H233ZM114 700V640H111Q111 662 96 676T58 690Q58
690 50 690T42 690V700H114ZM302 700V690Q302 690 294 690T286 690Q264 690 249 676T233 640H231V700H302ZM642 700V640H639Q639 662 624 676T586 690Q586 690 578 690T570 690V700H642ZM771 700V690Q771 690 763 690T755 690Q733 690 718 676T702 640H700V700H771ZM298
765L304 757L434 823L574 757L580 765L440 907H429L298 765Z" />
<glyph unicode="&#xdc;" horiz-adv-x="809" d="M233 700V260Q233 189 257 136T327 54T432 25Q496 25 542 52T613 129T639 247V700H702V251Q702 171 668 112T571 19T420 -14Q322 -14 253 18T147 110T111 250V700H233ZM114 700V640H111Q111 662 96 676T58 690Q58
690 50 690T42 690V700H114ZM302 700V690Q302 690 294 690T286 690Q264 690 249 676T233 640H231V700H302ZM642 700V640H639Q639 662 624 676T586 690Q586 690 578 690T570 690V700H642ZM771 700V690Q771 690 763 690T755 690Q733 690 718 676T702 640H700V700H771ZM324
761Q302 761 287 776T271 814Q271 837 286 852T324 867Q347 867 362 852T377 814Q377 792 362 777T324 761ZM543 761Q521 761 506 776T490 814Q490 837 505 852T543 867Q565 867 580 852T596 814Q596 792 581 777T543 761Z" />
<glyph unicode="&#xdd;" horiz-adv-x="689" d="M192 699L394 329L285 308L49 699H192ZM402 322V0H280V322H402ZM569 699H641L393 302L347 312L569 699ZM528 628Q536 642 532 656T518 680T493 690Q493 690 487 690T481 690V700H714V690H700Q669 690 642 672T599
631L528 628ZM231 628L90 631Q76 654 49 672T-10 690H-24V700H279V690Q279 690 273 690T266 690Q244 690 233 670T231 628ZM283 73V0H203V10Q203 10 209 10T216 10Q242 10 260 28T280 73H283ZM399 73H402Q402 47 421 29T466 10Q466 10 472 10T478 10V0H399V73ZM364
770Q382 797 406 825T455 878T502 923Q524 909 538 892T561 851Q532 834 500 817T435 787T371 763L364 770Z" />
<glyph unicode="&#xde;" horiz-adv-x="616" d="M242 700V0H120V700H242ZM122 73V0H43V10Q43 10 49 10T56 10Q82 10 100 28T120 73H122ZM122 627H120Q119 653 101 671T56 690Q55 690 49 690T43 690V700H122V627ZM239 73H242Q242 47 261 29T306 10Q306 10 312 10T318
10V0H239V73ZM239 627V700H318V690Q318 690 312 690T306 690Q280 690 261 672T242 627H239ZM225 552H349Q429 552 479 528T554 460T581 360Q582 310 564 270T513 203T441 164T357 156T272 187V197Q272 197 286 196T322 198T368 212T413 246T445 309Q449 322 450
338T452 369Q450 435 417 474T321 514H235Q235 514 233 523T228 542T225 552Z" />
<glyph unicode="&#xdf;" horiz-adv-x="994" d="M237 613Q260 613 285 612T335 607T377 601T403 594L395 480H386Q386 524 355 550T264 576Q216 576 184 553T151 493Q151 476 157 463T177 437T208 414L380 297Q414 277 433 242T451 161Q449 109 422 70T346 9T235
-13Q197 -13 161 -7T98 10T54 38Q48 56 49 82T56 135T72 181H82Q79 136 97 100T152 44T239 23Q298 24 329 51T360 120Q360 146 346 167T298 207L137 319Q94 344 76 382T62 464Q65 509 88 542T149 594T237 613ZM404 604L403 587H308V604H404ZM734 613Q757 613 782
612T832 607T874 601T900 594L892 480H883Q883 524 852 550T761 576Q713 576 681 553T648 493Q648 476 654 463T674 437T705 414L877 297Q911 277 930 242T948 161Q946 109 919 70T843 9T732 -13Q694 -13 658 -7T595 10T551 38Q545 56 546 82T553 135T569 181H579Q576
136 594 100T649 44T736 23Q795 24 826 51T857 120Q857 146 843 167T795 207L634 319Q591 344 573 382T559 464Q562 509 585 542T646 594T734 613ZM901 604L900 587H805V604H901Z" />
<glyph unicode="&#xe0;" horiz-adv-x="650" d="M325 623L614 6H475L280 471L325 623ZM135 68Q124 40 138 25T169 10H177V0H-20V10Q-20 10 -16 10T-12 10Q9 10 31 23T67 68H135ZM325 623L328 520L107 3H37L272 508Q273 512 279 526T294 559T308 595T316 623H325ZM422
208V172H163V208H422ZM449 68H585Q599 37 621 24T663 10Q663 10 667 10T671 10V0H407V10H415Q432 10 446 25T449 68ZM337 927L330 920Q299 930 266 943T201 974T140 1008Q149 1032 163 1049T199 1080Q220 1060 245 1035T294 982T337 927Z" />
<glyph unicode="&#xe1;" horiz-adv-x="650" d="M325 623L614 6H475L280 471L325 623ZM135 68Q124 40 138 25T169 10H177V0H-20V10Q-20 10 -16 10T-12 10Q9 10 31 23T67 68H135ZM325 623L328 520L107 3H37L272 508Q273 512 279 526T294 559T308 595T316 623H325ZM422
208V172H163V208H422ZM449 68H585Q599 37 621 24T663 10Q663 10 667 10T671 10V0H407V10H415Q432 10 446 25T449 68ZM307 926Q325 953 349 981T398 1034T445 1079Q467 1065 481 1048T504 1007Q475 990 443 973T378 943T314 919L307 926Z" />
<glyph unicode="&#xe2;" horiz-adv-x="650" d="M325 623L614 6H475L280 471L325 623ZM135 68Q124 40 138 25T169 10H177V0H-20V10Q-20 10 -16 10T-12 10Q9 10 31 23T67 68H135ZM325 623L328 520L107 3H37L272 508Q273 512 279 526T294 559T308 595T316 623H325ZM422
208V172H163V208H422ZM449 68H585Q599 37 621 24T663 10Q663 10 667 10T671 10V0H407V10H415Q432 10 446 25T449 68ZM184 921L190 913L320 979L460 913L466 921L326 1063H315L184 921Z" />
<glyph unicode="&#xe3;" horiz-adv-x="650" d="M325 623L614 6H475L280 471L325 623ZM135 68Q124 40 138 25T169 10H177V0H-20V10Q-20 10 -16 10T-12 10Q9 10 31 23T67 68H135ZM325 623L328 520L107 3H37L272 508Q273 512 279 526T294 559T308 595T316 623H325ZM422
208V172H163V208H422ZM449 68H585Q599 37 621 24T663 10Q663 10 667 10T671 10V0H407V10H415Q432 10 446 25T449 68ZM182 923H193Q199 936 208 946T232 963T262 968Q286 966 307 954T352 931T400 920Q423 920 440 930T468 956T483 992T486 1030H475Q471 1020 461
1011T437 996T405 992Q381 994 359 1006T315 1028T268 1039Q246 1039 230 1029T203 1001T187 964T182 923Z" />
<glyph unicode="&#xe4;" horiz-adv-x="650" d="M325 623L614 6H475L280 471L325 623ZM135 68Q124 40 138 25T169 10H177V0H-20V10Q-20 10 -16 10T-12 10Q9 10 31 23T67 68H135ZM325 623L328 520L107 3H37L272 508Q273 512 279 526T294 559T308 595T316 623H325ZM422
208V172H163V208H422ZM449 68H585Q599 37 621 24T663 10Q663 10 667 10T671 10V0H407V10H415Q432 10 446 25T449 68ZM210 917Q188 917 173 932T157 970Q157 993 172 1008T210 1023Q233 1023 248 1008T263 970Q263 948 248 933T210 917ZM429 917Q407 917 392 932T376
970Q376 993 391 1008T429 1023Q451 1023 466 1008T482 970Q482 948 467 933T429 917Z" />
<glyph unicode="&#xe5;" horiz-adv-x="650" d="M325 623L614 6H475L280 471L325 623ZM135 68Q124 40 138 25T169 10H177V0H-20V10Q-20 10 -16 10T-12 10Q9 10 31 23T67 68H135ZM325 623L328 520L107 3H37L272 508Q273 512 279 526T294 559T308 595T316 623H325ZM422
208V172H163V208H422ZM449 68H585Q599 37 621 24T663 10Q663 10 667 10T671 10V0H407V10H415Q432 10 446 25T449 68ZM321 1081Q366 1081 395 1059T424 1001Q424 966 395 943T321 920Q277 920 247 942T217 1000Q217 1035 247 1058T321 1081ZM321 1059Q300 1059 286
1043T271 1000Q271 973 285 958T321 942Q342 942 356 957T371 1000Q371 1027 357 1043T321 1059Z" />
<glyph unicode="&#xe6;" horiz-adv-x="855" d="M140 60Q132 46 134 35T146 17T168 10H176V0H-16V10Q-16 10 -13 10T-9 10Q12 10 32 24T69 62L140 60ZM536 600V0H420V561L536 600ZM422 50V0H369V10Q369 10 373 10T377 10Q394 10 406 21T420 50H422ZM780 36V0H533V36H780ZM740
308V271H259L263 308H740ZM780 600V562H465L439 530L105 3H28L414 556Q422 570 416 580T395 591H392V600H780ZM831 158L790 0H640L668 36Q725 36 764 69T821 158H831ZM740 273V198H731V205Q731 233 713 252T665 271V273H740ZM740 382V306H665V308Q694 308 712 327T731
373V382H740ZM780 564V478L770 479V488Q770 521 750 541T697 562V564H780ZM780 616V591L675 600Q704 600 736 605T780 616Z" />
<glyph unicode="&#xe7;" horiz-adv-x="690" d="M645 251L649 105Q627 70 591 44T504 2T390 -13Q282 -12 203 25T82 132T39 300Q39 398 81 468T202 575T390 613Q456 613 516 599T617 562L625 410H617Q593 502 535 539T396 577Q321 577 270 543T192 447T165 302Q165
218 192 156T269 59T390 23Q462 23 513 46T595 119T636 251H645ZM360 246H402L360 197Q373 202 392 202T429 198T459 178T470 137Q470 104 445 83T384 54T310 59L311 69Q332 69 354 75T391 97T407 138Q407 159 392 169T356 180T317 173Q317 173 315 178T312 183L360
246Z" />
<glyph unicode="&#xe8;" horiz-adv-x="558" d="M227 600V0H110V600H227ZM473 37L488 0H225V37H473ZM434 317V280H225V317H434ZM480 600V563H225V600H480ZM534 170L490 0H324L356 37Q402 37 434 53T489 100T525 170H534ZM434 282V204H424V213Q424 241 407 260T359
280V282H434ZM434 392V315H359V317Q390 317 407 336T424 383V392H434ZM480 566V472H469V483Q469 519 449 541T392 563V566H480ZM480 616V590L372 600Q401 600 434 605T480 616ZM112 63L119 0H41V10Q41 10 47 10T54 10Q77 10 93 25T110 63H112ZM112 537H110Q109
560 93 575T54 590Q54 590 48 590T41 590V600H119L112 537ZM309 927L302 920Q271 930 238 943T173 974T112 1008Q121 1032 135 1049T171 1080Q192 1060 217 1035T266 982T309 927Z" />
<glyph unicode="&#xe9;" horiz-adv-x="558" d="M227 600V0H110V600H227ZM473 37L488 0H225V37H473ZM434 317V280H225V317H434ZM480 600V563H225V600H480ZM534 170L490 0H324L356 37Q402 37 434 53T489 100T525 170H534ZM434 282V204H424V213Q424 241 407 260T359
280V282H434ZM434 392V315H359V317Q390 317 407 336T424 383V392H434ZM480 566V472H469V483Q469 519 449 541T392 563V566H480ZM480 616V590L372 600Q401 600 434 605T480 616ZM112 63L119 0H41V10Q41 10 47 10T54 10Q77 10 93 25T110 63H112ZM112 537H110Q109
560 93 575T54 590Q54 590 48 590T41 590V600H119L112 537ZM279 926Q297 953 321 981T370 1034T417 1079Q439 1065 453 1048T476 1007Q447 990 415 973T350 943T286 919L279 926Z" />
<glyph unicode="&#xea;" horiz-adv-x="558" d="M227 600V0H110V600H227ZM473 37L488 0H225V37H473ZM434 317V280H225V317H434ZM480 600V563H225V600H480ZM534 170L490 0H324L356 37Q402 37 434 53T489 100T525 170H534ZM434 282V204H424V213Q424 241 407 260T359
280V282H434ZM434 392V315H359V317Q390 317 407 336T424 383V392H434ZM480 566V472H469V483Q469 519 449 541T392 563V566H480ZM480 616V590L372 600Q401 600 434 605T480 616ZM112 63L119 0H41V10Q41 10 47 10T54 10Q77 10 93 25T110 63H112ZM112 537H110Q109
560 93 575T54 590Q54 590 48 590T41 590V600H119L112 537ZM156 921L162 913L292 979L432 913L438 921L298 1063H287L156 921Z" />
<glyph unicode="&#xeb;" horiz-adv-x="558" d="M227 600V0H110V600H227ZM473 37L488 0H225V37H473ZM434 317V280H225V317H434ZM480 600V563H225V600H480ZM534 170L490 0H324L356 37Q402 37 434 53T489 100T525 170H534ZM434 282V204H424V213Q424 241 407 260T359
280V282H434ZM434 392V315H359V317Q390 317 407 336T424 383V392H434ZM480 566V472H469V483Q469 519 449 541T392 563V566H480ZM480 616V590L372 600Q401 600 434 605T480 616ZM112 63L119 0H41V10Q41 10 47 10T54 10Q77 10 93 25T110 63H112ZM112 537H110Q109
560 93 575T54 590Q54 590 48 590T41 590V600H119L112 537ZM182 917Q160 917 145 932T129 970Q129 993 144 1008T182 1023Q205 1023 220 1008T235 970Q235 948 220 933T182 917ZM401 917Q379 917 364 932T348 970Q348 993 363 1008T401 1023Q423 1023 438 1008T454
970Q454 948 439 933T401 917Z" />
<glyph unicode="&#xec;" horiz-adv-x="329" d="M223 600V0H106V600H223ZM109 63V0H41V10Q41 10 46 10T52 10Q74 10 90 25T106 63H109ZM221 63H223Q224 41 239 26T277 10Q277 10 282 10T288 10V0H221V63ZM221 537V600H288L287 590Q287 590 283 590T277 590Q255
590 240 575T223 537H221ZM109 537H106Q106 560 90 575T52 590Q52 590 47 590T41 590V600H109V537ZM435 927L428 920Q397 930 364 943T299 974T238 1008Q247 1032 261 1049T297 1080Q318 1060 343 1035T392 982T435 927Z" />
<glyph unicode="&#xed;" horiz-adv-x="329" d="M223 600V0H106V600H223ZM109 63V0H41V10Q41 10 46 10T52 10Q74 10 90 25T106 63H109ZM221 63H223Q224 41 239 26T277 10Q277 10 282 10T288 10V0H221V63ZM221 537V600H288L287 590Q287 590 283 590T277 590Q255
590 240 575T223 537H221ZM109 537H106Q106 560 90 575T52 590Q52 590 47 590T41 590V600H109V537ZM406 926Q424 953 448 981T497 1034T544 1079Q566 1065 580 1048T603 1007Q574 990 542 973T477 943T413 919L406 926Z" />
<glyph unicode="&#xee;" horiz-adv-x="329" d="M223 600V0H106V600H223ZM109 63V0H41V10Q41 10 46 10T52 10Q74 10 90 25T106 63H109ZM221 63H223Q224 41 239 26T277 10Q277 10 282 10T288 10V0H221V63ZM221 537V600H288L287 590Q287 590 283 590T277 590Q255
590 240 575T223 537H221ZM109 537H106Q106 560 90 575T52 590Q52 590 47 590T41 590V600H109V537ZM283 921L289 913L419 979L559 913L565 921L425 1063H414L283 921Z" />
<glyph unicode="&#xef;" horiz-adv-x="329" d="M223 600V0H106V600H223ZM109 63V0H41V10Q41 10 46 10T52 10Q74 10 90 25T106 63H109ZM221 63H223Q224 41 239 26T277 10Q277 10 282 10T288 10V0H221V63ZM221 537V600H288L287 590Q287 590 283 590T277 590Q255
590 240 575T223 537H221ZM109 537H106Q106 560 90 575T52 590Q52 590 47 590T41 590V600H109V537ZM309 917Q287 917 272 932T256 970Q256 993 271 1008T309 1023Q332 1023 347 1008T362 970Q362 948 347 933T309 917ZM528 917Q506 917 491 932T475 970Q475 993
490 1008T528 1023Q550 1023 565 1008T581 970Q581 948 566 933T528 917Z" />
<glyph unicode="&#xf0;" horiz-adv-x="752" d="M377 600Q482 600 557 564T672 461T713 300Q713 206 673 139T557 36T377 0H158L156 36Q230 36 277 36T346 36T369 36Q470 36 528 106T587 300Q587 423 529 493T369 564Q369 564 346 564T273 564T146 564V600H377ZM228
600V0H110V600H228ZM112 64V0H40V10Q40 10 46 10T53 10Q77 10 93 26T110 64H112ZM112 536H110Q109 560 93 575T52 590Q52 590 46 590T40 590V600H112V536ZM45 318H364V282H45V318Z" />
<glyph unicode="&#xf1;" horiz-adv-x="779" d="M97 614L673 96L683 -13L107 506L97 614ZM100 61V0H26V10Q26 10 34 10T42 10Q65 10 81 24T97 61H100ZM203 61Q204 39 220 25T258 10Q258 10 266 10T275 10V0H201V61H203ZM97 614L203 495V0H97V497Q97 548 92 581T87
614H97ZM682 600V107Q682 73 684 46T689 3T692 -13H683L576 111V600H682ZM679 539V600H754V590Q754 590 746 590T737 590Q715 590 699 576T682 539H679ZM576 539Q575 561 559 575T521 590Q521 590 513 590T504 590V600H578V539H576ZM238 923H249Q255 936 264 946T288
963T318 968Q342 966 363 954T408 931T456 920Q479 920 496 930T524 956T539 992T542 1030H531Q527 1020 517 1011T493 996T461 992Q437 994 415 1006T371 1028T324 1039Q302 1039 286 1029T259 1001T243 964T238 923Z" />
<glyph unicode="&#xf2;" horiz-adv-x="776" d="M388 613Q464 613 528 591T639 528T711 430T737 300Q737 228 712 171T639 72T528 9T388 -13Q312 -13 248 9T138 72T66 170T40 300Q40 372 65 429T137 528T248 591T388 613ZM388 23Q453 23 503 57T581 153T610 300Q610
385 582 447T503 543T388 577Q323 577 273 543T195 447T167 300Q167 216 195 154T273 57T388 23ZM404 672L397 665Q366 675 333 688T268 719T207 753Q216 777 230 794T266 825Q287 805 312 780T361 727T404 672Z" />
<glyph unicode="&#xf3;" horiz-adv-x="776" d="M388 613Q464 613 528 591T639 528T711 430T737 300Q737 228 712 171T639 72T528 9T388 -13Q312 -13 248 9T138 72T66 170T40 300Q40 372 65 429T137 528T248 591T388 613ZM388 23Q453 23 503 57T581 153T610 300Q610
385 582 447T503 543T388 577Q323 577 273 543T195 447T167 300Q167 216 195 154T273 57T388 23ZM375 670Q393 697 417 725T466 778T513 823Q535 809 549 792T572 751Q543 734 511 717T446 687T382 663L375 670Z" />
<glyph unicode="&#xf4;" horiz-adv-x="776" d="M388 613Q464 613 528 591T639 528T711 430T737 300Q737 228 712 171T639 72T528 9T388 -13Q312 -13 248 9T138 72T66 170T40 300Q40 372 65 429T137 528T248 591T388 613ZM388 23Q453 23 503 57T581 153T610 300Q610
385 582 447T503 543T388 577Q323 577 273 543T195 447T167 300Q167 216 195 154T273 57T388 23ZM251 921L257 913L387 979L527 913L533 921L393 1063H382L251 921Z" />
<glyph unicode="&#xf5;" horiz-adv-x="776" d="M388 613Q464 613 528 591T639 528T711 430T737 300Q737 228 712 171T639 72T528 9T388 -13Q312 -13 248 9T138 72T66 170T40 300Q40 372 65 429T137 528T248 591T388 613ZM388 23Q453 23 503 57T581 153T610 300Q610
385 582 447T503 543T388 577Q323 577 273 543T195 447T167 300Q167 216 195 154T273 57T388 23ZM249 923H260Q266 936 275 946T299 963T329 968Q353 966 374 954T419 931T467 920Q490 920 507 930T535 956T550 992T553 1030H542Q538 1020 528 1011T504 996T472
992Q448 994 426 1006T382 1028T335 1039Q313 1039 297 1029T270 1001T254 964T249 923Z" />
<glyph unicode="&#xf6;" horiz-adv-x="776" d="M388 613Q464 613 528 591T639 528T711 430T737 300Q737 228 712 171T639 72T528 9T388 -13Q312 -13 248 9T138 72T66 170T40 300Q40 372 65 429T137 528T248 591T388 613ZM388 23Q453 23 503 57T581 153T610 300Q610
385 582 447T503 543T388 577Q323 577 273 543T195 447T167 300Q167 216 195 154T273 57T388 23ZM278 917Q256 917 241 932T225 970Q225 993 240 1008T278 1023Q301 1023 316 1008T331 970Q331 948 316 933T278 917ZM497 917Q475 917 460 932T444 970Q444 993 459
1008T497 1023Q519 1023 534 1008T550 970Q550 948 535 933T497 917Z" />
<glyph unicode="&#xf7;" horiz-adv-x="481" d="M40 336H442V283H40V336ZM241 110Q223 110 211 122T198 152Q198 170 210 182T241 194Q258 194 270 182T283 152Q283 135 271 123T241 110ZM241 426Q223 426 211 438T198 468Q198 486 210 498T241 510Q258 510 270
498T283 468Q283 451 271 439T241 426Z" />
<glyph unicode="&#xf8;" horiz-adv-x="776" d="M624 636L657 608L125 -27L92 1L624 636ZM388 613Q463 613 526 591T637 528T711 430T737 300Q737 228 712 171T639 72T528 9T388 -13Q312 -13 248 9T138 72T66 170T40 300Q40 372 65 429T137 528T248 591T388 613ZM388
23Q453 23 503 57T581 153T610 300Q610 385 582 447T503 543T388 577Q323 577 273 543T195 447T167 300Q167 216 195 154T273 57T388 23Z" />
<glyph unicode="&#xf9;" horiz-adv-x="703" d="M210 600V222Q210 129 255 76T379 22Q463 22 510 72T558 211V600H617V216Q617 109 552 48T367 -13Q232 -13 162 47T92 214V600H210ZM94 600V548H92Q91 566 78 578T46 591Q46 591 39 591T31 591V600H94ZM270 600V591Q270
591 263 591T255 591Q237 591 224 579T210 548H208V600H270ZM560 600V548H558Q558 566 545 578T512 591Q512 591 505 591T497 591V600H560ZM678 600V591Q678 591 671 591T664 591Q645 591 632 579T617 548H615V600H678ZM385 927L378 920Q347 930 314 943T249 974T188
1008Q197 1032 211 1049T247 1080Q268 1060 293 1035T342 982T385 927Z" />
<glyph unicode="&#xfa;" horiz-adv-x="703" d="M210 600V222Q210 129 255 76T379 22Q463 22 510 72T558 211V600H617V216Q617 109 552 48T367 -13Q232 -13 162 47T92 214V600H210ZM94 600V548H92Q91 566 78 578T46 591Q46 591 39 591T31 591V600H94ZM270 600V591Q270
591 263 591T255 591Q237 591 224 579T210 548H208V600H270ZM560 600V548H558Q558 566 545 578T512 591Q512 591 505 591T497 591V600H560ZM678 600V591Q678 591 671 591T664 591Q645 591 632 579T617 548H615V600H678ZM356 670Q374 697 398 725T447 778T494 823Q516
809 530 792T553 751Q524 734 492 717T427 687T363 663L356 670Z" />
<glyph unicode="&#xfb;" horiz-adv-x="703" d="M210 600V222Q210 129 255 76T379 22Q463 22 510 72T558 211V600H617V216Q617 109 552 48T367 -13Q232 -13 162 47T92 214V600H210ZM94 600V548H92Q91 566 78 578T46 591Q46 591 39 591T31 591V600H94ZM270 600V591Q270
591 263 591T255 591Q237 591 224 579T210 548H208V600H270ZM560 600V548H558Q558 566 545 578T512 591Q512 591 505 591T497 591V600H560ZM678 600V591Q678 591 671 591T664 591Q645 591 632 579T617 548H615V600H678ZM232 921L238 913L368 979L508 913L514 921L374
1063H363L232 921Z" />
<glyph unicode="&#xfc;" horiz-adv-x="703" d="M210 600V222Q210 129 255 76T379 22Q463 22 510 72T558 211V600H617V216Q617 109 552 48T367 -13Q232 -13 162 47T92 214V600H210ZM94 600V548H92Q91 566 78 578T46 591Q46 591 39 591T31 591V600H94ZM270 600V591Q270
591 263 591T255 591Q237 591 224 579T210 548H208V600H270ZM560 600V548H558Q558 566 545 578T512 591Q512 591 505 591T497 591V600H560ZM678 600V591Q678 591 671 591T664 591Q645 591 632 579T617 548H615V600H678ZM259 917Q237 917 222 932T206 970Q206 993
221 1008T259 1023Q282 1023 297 1008T312 970Q312 948 297 933T259 917ZM478 917Q456 917 441 932T425 970Q425 993 440 1008T478 1023Q500 1023 515 1008T531 970Q531 948 516 933T478 917Z" />
<glyph unicode="&#xfd;" horiz-adv-x="637" d="M180 599L368 272L265 251L42 599H180ZM377 267V0H258V266L377 267ZM527 599H597L368 247L324 257L527 599ZM490 537Q501 556 491 573T460 590Q460 590 454 590T448 590V600H661V590H648Q621 590 597 575T559 540L490
537ZM216 538L79 541Q64 563 41 576T-10 590H-22V600H257V590Q257 590 252 590T246 590Q225 590 216 573T216 538ZM261 63V0H190V10Q191 10 196 10T202 10Q225 10 241 25T258 63H261ZM374 63H377Q378 41 394 26T433 10Q433 10 439 10T445 10V0H374V63ZM336 670Q354
697 378 725T427 778T474 823Q496 809 510 792T533 751Q504 734 472 717T407 687T343 663L336 670Z" />
<glyph unicode="&#xfe;" horiz-adv-x="557" d="M214 477H319Q394 477 443 456T516 396T542 309Q544 251 520 208T454 143T363 123T265 154L264 163Q264 163 276 162T306 163T346 175T385 206T414 265Q418 277 419 291T420 318Q420 376 386 408T292 441H224Q224
441 222 450T217 468T214 477ZM229 600V0H113V600H229ZM116 64L122 0H47V10Q47 10 53 10T59 10Q82 10 97 26T113 64H116ZM116 537H113Q113 560 98 575T59 590Q59 590 53 590T47 590V600H122L116 537ZM226 64H229Q229 42 244 26T283 10Q283 10 289 10T295 10V0H219L226
64ZM226 537L219 600H295V590Q295 590 289 590T283 590Q260 590 245 575T229 537H226Z" />
<glyph unicode="&#xff;" horiz-adv-x="637" d="M180 599L368 272L265 251L42 599H180ZM377 267V0H258V266L377 267ZM527 599H597L368 247L324 257L527 599ZM490 537Q501 556 491 573T460 590Q460 590 454 590T448 590V600H661V590H648Q621 590 597 575T559 540L490
537ZM216 538L79 541Q64 563 41 576T-10 590H-22V600H257V590Q257 590 252 590T246 590Q225 590 216 573T216 538ZM261 63V0H190V10Q191 10 196 10T202 10Q225 10 241 25T258 63H261ZM374 63H377Q378 41 394 26T433 10Q433 10 439 10T445 10V0H374V63ZM239 917Q217
917 202 932T186 970Q186 993 201 1008T239 1023Q262 1023 277 1008T292 970Q292 948 277 933T239 917ZM458 917Q436 917 421 932T405 970Q405 993 420 1008T458 1023Q480 1023 495 1008T511 970Q511 948 496 933T458 917Z" />
<glyph unicode="&#x2013;" horiz-adv-x="500" d="M0 315H500V267H0V315Z" />
<glyph unicode="&#x2014;" horiz-adv-x="800" d="M0 315H800V267H0V315Z" />
<glyph unicode="&#x2018;" horiz-adv-x="227" d="M166 584Q153 568 131 565T87 572T54 608Q37 646 41 683T66 749T116 795T182 808L185 796Q157 787 145 767T136 725T156 682Q168 668 174 651T180 617T166 584Z" />
<glyph unicode="&#x2019;" horiz-adv-x="227" d="M62 787Q76 804 98 807T142 799T174 763Q191 725 187 688T163 622T113 576T46 563L43 575Q71 585 83 604T92 646T72 689Q61 703 54 720T48 756T62 787Z" />
<glyph unicode="&#x201a;" horiz-adv-x="227" d="M62 108Q76 125 98 128T142 120T174 84Q191 46 187 9T163 -57T113 -103T46 -116L43 -104Q71 -94 83 -75T92 -33T72 10Q61 24 54 41T48 77T62 108Z" />
<glyph unicode="&#x201c;" horiz-adv-x="408" d="M345 584Q332 568 310 565T266 572T233 608Q216 646 220 683T245 749T295 795T361 808L364 796Q336 787 324 767T315 725T335 682Q347 668 353 651T359 617T345 584ZM420 584Q407 568 385 565T341 572T308 608Q291
646 295 683T320 749T370 795T436 808L439 796Q411 787 399 767T390 725T410 682Q422 668 428 651T434 617T420 584Z" />
<glyph unicode="&#x201d;" horiz-adv-x="404" d="M238 787Q252 804 274 807T318 799T350 763Q367 725 363 688T339 622T289 576T222 563L219 575Q247 585 259 604T268 646T248 689Q237 703 230 720T224 756T238 787ZM62 787Q76 804 98 807T142 799T174 763Q191
725 187 688T163 622T113 576T46 563L43 575Q71 585 83 604T92 646T72 689Q61 703 54 720T48 756T62 787Z" />
<glyph unicode="&#x201e;" horiz-adv-x="404" d="M238 108Q252 125 274 128T318 120T350 84Q367 46 363 9T339 -57T289 -103T222 -116L219 -104Q247 -94 259 -75T268 -33T248 10Q237 24 230 41T224 77T238 108ZM62 108Q76 125 98 128T142 120T174 84Q191 46 187
9T163 -57T113 -103T46 -116L43 -104Q71 -94 83 -75T92 -33T72 10Q61 24 54 41T48 77T62 108Z" />
<glyph unicode="&#x2022;" horiz-adv-x="357" d="M195 219Q179 214 163 219Q137 227 122 234T97 250T81 275T65 317Q59 333 65 349Q74 375 80 390T96 415T121 431T163 447Q179 453 195 447Q221 438 236 431T261 415T277 391T293 349Q296 340 296 333T292 314Q284
289 277 274T261 250T237 234T195 219Z" />
<glyph unicode="&#x2039;" horiz-adv-x="303" d="M40 292L235 89L244 95L141 292L243 485L235 490L40 292Z" />
<glyph unicode="&#x203a;" horiz-adv-x="303" d="M264 292L69 490L61 485L163 292L60 95L69 89L264 292Z" />
</font>
</defs>
</svg>
